G04 #@! TF.FileFunction,Copper,L2,Bot,Signal*
%FSLAX46Y46*%
G04 Gerber Fmt 4.6, Leading zero omitted, Abs format (unit mm)*
G04 Created by KiCad (PCBNEW 4.0.7) date 04/21/18 22:11:58*
%MOMM*%
%LPD*%
G01*
G04 APERTURE LIST*
%ADD10C,0.100000*%
%ADD11C,1.800000*%
%ADD12R,2.000000X2.600000*%
%ADD13O,2.000000X2.600000*%
%ADD14R,0.900000X0.500000*%
%ADD15R,2.600000X2.000000*%
%ADD16O,2.600000X2.000000*%
%ADD17R,1.250000X1.500000*%
%ADD18R,1.800000X1.800000*%
%ADD19R,0.800000X0.900000*%
%ADD20R,1.750000X1.500000*%
%ADD21O,2.000000X1.500000*%
%ADD22C,1.500000*%
%ADD23C,1.500000*%
%ADD24C,1.000000*%
%ADD25C,0.500000*%
%ADD26C,0.254000*%
G04 APERTURE END LIST*
D10*
G36*
X133987792Y-106426000D02*
X132715000Y-107698792D01*
X131442208Y-106426000D01*
X132715000Y-105153208D01*
X133987792Y-106426000D01*
X133987792Y-106426000D01*
G37*
D11*
X130918949Y-104629949D03*
D12*
X145986500Y-106807000D03*
D13*
X143446500Y-106807000D03*
X140906500Y-106807000D03*
D14*
X152654000Y-119392000D03*
X152654000Y-120892000D03*
D10*
G36*
X143851457Y-125974695D02*
X144770695Y-125055457D01*
X145831355Y-126116117D01*
X144912117Y-127035355D01*
X143851457Y-125974695D01*
X143851457Y-125974695D01*
G37*
G36*
X145760645Y-127883883D02*
X146679883Y-126964645D01*
X147740543Y-128025305D01*
X146821305Y-128944543D01*
X145760645Y-127883883D01*
X145760645Y-127883883D01*
G37*
D15*
X143256000Y-138557000D03*
D16*
X143256000Y-136017000D03*
D17*
X135636000Y-117074000D03*
X135636000Y-114574000D03*
D10*
G36*
X116842792Y-123571000D02*
X115570000Y-124843792D01*
X114297208Y-123571000D01*
X115570000Y-122298208D01*
X116842792Y-123571000D01*
X116842792Y-123571000D01*
G37*
D11*
X113773949Y-121774949D03*
D18*
X137160000Y-72136000D03*
D11*
X139700000Y-72136000D03*
D18*
X176530000Y-106426000D03*
D11*
X176530000Y-103886000D03*
D18*
X168910000Y-117856000D03*
D11*
X171450000Y-117856000D03*
D10*
G36*
X165882924Y-123665093D02*
X167545907Y-124353924D01*
X166857076Y-126016907D01*
X165194093Y-125328076D01*
X165882924Y-123665093D01*
X165882924Y-123665093D01*
G37*
D11*
X165397984Y-127187654D03*
D10*
G36*
X154305000Y-107698792D02*
X153032208Y-106426000D01*
X154305000Y-105153208D01*
X155577792Y-106426000D01*
X154305000Y-107698792D01*
X154305000Y-107698792D01*
G37*
D11*
X156101051Y-104629949D03*
D18*
X158750000Y-97536000D03*
D11*
X156210000Y-97536000D03*
D10*
G36*
X170759482Y-125477581D02*
X169543419Y-124150482D01*
X170870518Y-122934419D01*
X172086581Y-124261518D01*
X170759482Y-125477581D01*
X170759482Y-125477581D01*
G37*
D11*
X172687684Y-122490001D03*
D18*
X175260000Y-115316000D03*
D11*
X175260000Y-112776000D03*
D18*
X175260000Y-96266000D03*
D11*
X175260000Y-93726000D03*
D10*
G36*
X173357792Y-88011000D02*
X172085000Y-89283792D01*
X170812208Y-88011000D01*
X172085000Y-86738208D01*
X173357792Y-88011000D01*
X173357792Y-88011000D01*
G37*
D11*
X170288949Y-86214949D03*
D10*
G36*
X167007792Y-80391000D02*
X165735000Y-81663792D01*
X164462208Y-80391000D01*
X165735000Y-79118208D01*
X167007792Y-80391000D01*
X167007792Y-80391000D01*
G37*
D11*
X163938949Y-78594949D03*
D10*
G36*
X159514792Y-75692000D02*
X158242000Y-76964792D01*
X156969208Y-75692000D01*
X158242000Y-74419208D01*
X159514792Y-75692000D01*
X159514792Y-75692000D01*
G37*
D11*
X156445949Y-73895949D03*
D18*
X149860000Y-72136000D03*
D11*
X147320000Y-72136000D03*
D18*
X171450000Y-108966000D03*
D11*
X171450000Y-111506000D03*
D10*
G36*
X171450000Y-100708208D02*
X172722792Y-101981000D01*
X171450000Y-103253792D01*
X170177208Y-101981000D01*
X171450000Y-100708208D01*
X171450000Y-100708208D01*
G37*
D11*
X169653949Y-103777051D03*
D18*
X167640000Y-96266000D03*
D11*
X165100000Y-96266000D03*
D18*
X156210000Y-86106000D03*
D11*
X153670000Y-86106000D03*
D10*
G36*
X159385000Y-129288792D02*
X158112208Y-128016000D01*
X159385000Y-126743208D01*
X160657792Y-128016000D01*
X159385000Y-129288792D01*
X159385000Y-129288792D01*
G37*
D11*
X161181051Y-126219949D03*
D18*
X163830000Y-121031000D03*
D11*
X163830000Y-123571000D03*
D10*
G36*
X165735000Y-112773208D02*
X167007792Y-114046000D01*
X165735000Y-115318792D01*
X164462208Y-114046000D01*
X165735000Y-112773208D01*
X165735000Y-112773208D01*
G37*
D11*
X163938949Y-115842051D03*
D18*
X164465000Y-107696000D03*
D11*
X164465000Y-110236000D03*
D18*
X162560000Y-102616000D03*
D11*
X160020000Y-102616000D03*
D18*
X152400000Y-92456000D03*
D11*
X152400000Y-94996000D03*
D18*
X146685000Y-91186000D03*
D11*
X146685000Y-93726000D03*
D18*
X153670000Y-129286000D03*
D11*
X153670000Y-126746000D03*
D18*
X154940000Y-124206000D03*
D11*
X157480000Y-124206000D03*
D18*
X158750000Y-119126000D03*
D11*
X156210000Y-119126000D03*
D10*
G36*
X158750000Y-111503208D02*
X160022792Y-112776000D01*
X158750000Y-114048792D01*
X157477208Y-112776000D01*
X158750000Y-111503208D01*
X158750000Y-111503208D01*
G37*
D11*
X156953949Y-114572051D03*
D10*
G36*
X158242000Y-107185208D02*
X159514792Y-108458000D01*
X158242000Y-109730792D01*
X156969208Y-108458000D01*
X158242000Y-107185208D01*
X158242000Y-107185208D01*
G37*
D11*
X156445949Y-110254051D03*
D18*
X151130000Y-101346000D03*
D11*
X151130000Y-103886000D03*
D18*
X146050000Y-100076000D03*
D11*
X146050000Y-102616000D03*
D18*
X133350000Y-129286000D03*
D11*
X133350000Y-126746000D03*
D18*
X132080000Y-124206000D03*
D11*
X129540000Y-124206000D03*
D18*
X128270000Y-119126000D03*
D11*
X130810000Y-119126000D03*
D10*
G36*
X127348093Y-109453076D02*
X128036924Y-107790093D01*
X129699907Y-108478924D01*
X129011076Y-110141907D01*
X127348093Y-109453076D01*
X127348093Y-109453076D01*
G37*
D11*
X130870654Y-109938016D03*
D18*
X135890000Y-101346000D03*
D11*
X135890000Y-103886000D03*
D18*
X140970000Y-100076000D03*
D11*
X140970000Y-102616000D03*
D10*
G36*
X128907792Y-128016000D02*
X127635000Y-129288792D01*
X126362208Y-128016000D01*
X127635000Y-126743208D01*
X128907792Y-128016000D01*
X128907792Y-128016000D01*
G37*
D11*
X125838949Y-126219949D03*
D18*
X123190000Y-121031000D03*
D11*
X123190000Y-123571000D03*
D10*
G36*
X119377208Y-114046000D02*
X120650000Y-112773208D01*
X121922792Y-114046000D01*
X120650000Y-115318792D01*
X119377208Y-114046000D01*
X119377208Y-114046000D01*
G37*
D11*
X122446051Y-115842051D03*
D18*
X121920000Y-107696000D03*
D11*
X121920000Y-110236000D03*
D18*
X123698000Y-102616000D03*
D11*
X126238000Y-102616000D03*
D18*
X127000000Y-97536000D03*
D11*
X129540000Y-97536000D03*
D18*
X133985000Y-92456000D03*
D11*
X133985000Y-94996000D03*
D10*
G36*
X119576538Y-124157129D02*
X121333871Y-123767538D01*
X121723462Y-125524871D01*
X119966129Y-125914462D01*
X119576538Y-124157129D01*
X119576538Y-124157129D01*
G37*
D11*
X121199757Y-127320792D03*
D18*
X118110000Y-117856000D03*
D11*
X115570000Y-117856000D03*
D18*
X115570000Y-108966000D03*
D11*
X115570000Y-111506000D03*
D10*
G36*
X114297208Y-101981000D02*
X115570000Y-100708208D01*
X116842792Y-101981000D01*
X115570000Y-103253792D01*
X114297208Y-101981000D01*
X114297208Y-101981000D01*
G37*
D11*
X117366051Y-103777051D03*
D18*
X124460000Y-89916000D03*
D11*
X127000000Y-89916000D03*
D18*
X130810000Y-86106000D03*
D11*
X133350000Y-86106000D03*
D18*
X138430000Y-83566000D03*
D11*
X140970000Y-83566000D03*
D18*
X111760000Y-115316000D03*
D11*
X111760000Y-112776000D03*
D18*
X111760000Y-96266000D03*
D11*
X111760000Y-93726000D03*
D10*
G36*
X115570000Y-88648792D02*
X114297208Y-87376000D01*
X115570000Y-86103208D01*
X116842792Y-87376000D01*
X115570000Y-88648792D01*
X115570000Y-88648792D01*
G37*
D11*
X117366051Y-85579949D03*
D10*
G36*
X121285000Y-81663792D02*
X120012208Y-80391000D01*
X121285000Y-79118208D01*
X122557792Y-80391000D01*
X121285000Y-81663792D01*
X121285000Y-81663792D01*
G37*
D11*
X123081051Y-78594949D03*
D10*
G36*
X128778000Y-76964792D02*
X127505208Y-75692000D01*
X128778000Y-74419208D01*
X130050792Y-75692000D01*
X128778000Y-76964792D01*
X128778000Y-76964792D01*
G37*
D11*
X130574051Y-73895949D03*
D18*
X140335000Y-91186000D03*
D11*
X140335000Y-93726000D03*
D18*
X110490000Y-106426000D03*
D11*
X110490000Y-103886000D03*
D18*
X148590000Y-83566000D03*
D11*
X146050000Y-83566000D03*
D18*
X162560000Y-89916000D03*
D11*
X160020000Y-89916000D03*
D18*
X119380000Y-96266000D03*
D11*
X121920000Y-96266000D03*
D10*
G36*
X126997208Y-112776000D02*
X128270000Y-111503208D01*
X129542792Y-112776000D01*
X128270000Y-114048792D01*
X126997208Y-112776000D01*
X126997208Y-112776000D01*
G37*
D11*
X130066051Y-114572051D03*
D10*
G36*
X134295290Y-110945899D02*
X133729604Y-110380213D01*
X134366000Y-109743817D01*
X134931686Y-110309503D01*
X134295290Y-110945899D01*
X134295290Y-110945899D01*
G37*
G36*
X132951787Y-109602396D02*
X132386101Y-109036710D01*
X133022497Y-108400314D01*
X133588183Y-108966000D01*
X132951787Y-109602396D01*
X132951787Y-109602396D01*
G37*
G36*
X135037752Y-108859934D02*
X134472066Y-108294248D01*
X135108462Y-107657852D01*
X135674148Y-108223538D01*
X135037752Y-108859934D01*
X135037752Y-108859934D01*
G37*
D19*
X148148000Y-135144000D03*
X150048000Y-135144000D03*
X149098000Y-137144000D03*
D20*
X152717500Y-116840000D03*
D21*
X152717500Y-114808000D03*
X152717500Y-112776000D03*
D10*
G36*
X139981839Y-122996402D02*
X138744402Y-124233839D01*
X137683741Y-123173178D01*
X138921178Y-121935741D01*
X139981839Y-122996402D01*
X139981839Y-122996402D01*
G37*
D22*
X137219172Y-121824726D02*
X137572726Y-121471172D01*
X135782331Y-120387885D02*
X136135885Y-120034331D01*
D23*
X147320000Y-138684000D03*
X136906000Y-106426000D03*
X142494000Y-128524000D03*
X123698000Y-97790000D03*
D24*
X139700000Y-126238000D03*
X133350000Y-111252000D03*
X161544000Y-95758000D03*
X164338000Y-99822000D03*
X162052000Y-110490000D03*
X159004000Y-100076000D03*
X157988000Y-122428000D03*
X162560000Y-118364000D03*
X156210000Y-116332000D03*
X161798000Y-116078000D03*
X144018000Y-127762000D03*
X139446000Y-138430000D03*
X132334000Y-137414000D03*
X164846000Y-87376000D03*
X129286000Y-91440000D03*
X124968000Y-84709000D03*
X122428000Y-86995000D03*
X121031000Y-88646000D03*
X118110000Y-90678000D03*
X117221000Y-95123000D03*
X115316000Y-97409000D03*
X113665000Y-100711000D03*
X112014000Y-108458000D03*
X143256000Y-78359000D03*
X143510000Y-84836000D03*
X128651000Y-81280000D03*
X132715000Y-79883000D03*
X161417000Y-84455000D03*
X147955000Y-78359000D03*
X151130000Y-78740000D03*
X155321000Y-80010000D03*
X138811000Y-78105000D03*
X172847000Y-99822000D03*
X170053000Y-96647000D03*
X168275000Y-90678000D03*
X143256000Y-111252000D03*
X138430000Y-87884000D03*
X143510000Y-103378000D03*
X137668000Y-102870000D03*
X136398000Y-128524000D03*
X152400000Y-136144000D03*
X155702000Y-132842000D03*
X156464000Y-130048000D03*
X161798000Y-131064000D03*
X147320000Y-121920000D03*
X145288000Y-110236000D03*
X145796000Y-117094000D03*
X143764000Y-119380000D03*
X143002000Y-114808000D03*
X135382000Y-121920000D03*
X130302000Y-120904000D03*
X124968000Y-119634000D03*
X120904000Y-116332000D03*
X118364000Y-113538000D03*
X119888000Y-104648000D03*
X123444000Y-105410000D03*
X128016000Y-103124000D03*
X153924000Y-99314000D03*
X149606000Y-96774000D03*
X144780000Y-97028000D03*
X140462000Y-135128000D03*
X134620000Y-135128000D03*
X134366000Y-137414000D03*
X141224000Y-116586000D03*
X157988000Y-131318000D03*
X152400000Y-124714000D03*
X136398000Y-109728000D03*
X149098000Y-133858000D03*
X142494000Y-126746000D03*
X138176000Y-127508000D03*
X145796000Y-119126000D03*
X147574000Y-124714000D03*
D25*
X142494000Y-125476000D02*
X144272000Y-125476000D01*
X144272000Y-125476000D02*
X144841406Y-126045406D01*
X142494000Y-117348000D02*
X142494000Y-125476000D01*
X139700000Y-126238000D02*
X140462000Y-125476000D01*
X140462000Y-125476000D02*
X142494000Y-125476000D01*
X143510000Y-112522000D02*
X144272000Y-111760000D01*
X142494000Y-116078000D02*
X142494000Y-117348000D01*
X144272000Y-109474000D02*
X144272000Y-111760000D01*
X145986500Y-107759500D02*
X144272000Y-109474000D01*
X143510000Y-112522000D02*
X141732000Y-114300000D01*
X141732000Y-114300000D02*
X141732000Y-115316000D01*
X141732000Y-115316000D02*
X142494000Y-116078000D01*
X145986500Y-106807000D02*
X145986500Y-107759500D01*
X132987142Y-110889142D02*
X132987142Y-109001355D01*
X133350000Y-111252000D02*
X132987142Y-110889142D01*
X151384000Y-136906000D02*
X151384000Y-137668000D01*
X150048000Y-135570000D02*
X151384000Y-136906000D01*
X150368000Y-138684000D02*
X147320000Y-138684000D01*
X151384000Y-137668000D02*
X150368000Y-138684000D01*
X143446500Y-106807000D02*
X143446500Y-106172000D01*
X161798000Y-116078000D02*
X161798000Y-110744000D01*
X161544000Y-97028000D02*
X161544000Y-95758000D01*
X164338000Y-99822000D02*
X161544000Y-97028000D01*
X161798000Y-110744000D02*
X162052000Y-110490000D01*
X139680000Y-114574000D02*
X135636000Y-114574000D01*
X143002000Y-111252000D02*
X139680000Y-114574000D01*
X143256000Y-111252000D02*
X143002000Y-111252000D01*
X162560000Y-118364000D02*
X162560000Y-116840000D01*
X157988000Y-122428000D02*
X159004000Y-121412000D01*
X159004000Y-121412000D02*
X159512000Y-121412000D01*
X159512000Y-121412000D02*
X162560000Y-118364000D01*
X162560000Y-116840000D02*
X161798000Y-116078000D01*
X150048000Y-135144000D02*
X150048000Y-135570000D01*
X134620000Y-138430000D02*
X139446000Y-138430000D01*
X132334000Y-137414000D02*
X133350000Y-138430000D01*
X133350000Y-138430000D02*
X134620000Y-138430000D01*
X168275000Y-90678000D02*
X168148000Y-90678000D01*
X168148000Y-90678000D02*
X164846000Y-87376000D01*
X113665000Y-100711000D02*
X113665000Y-106807000D01*
X124968000Y-84709000D02*
X122682000Y-86995000D01*
X122682000Y-86995000D02*
X122428000Y-86995000D01*
X121031000Y-88646000D02*
X118999000Y-90678000D01*
X118999000Y-90678000D02*
X118110000Y-90678000D01*
X117221000Y-95123000D02*
X115316000Y-97028000D01*
X115316000Y-97028000D02*
X115316000Y-97409000D01*
X113665000Y-106807000D02*
X112014000Y-108458000D01*
X131318000Y-81280000D02*
X128651000Y-81280000D01*
X132715000Y-79883000D02*
X131318000Y-81280000D01*
X164338000Y-87376000D02*
X161417000Y-84455000D01*
X164846000Y-87376000D02*
X164338000Y-87376000D01*
X143256000Y-78359000D02*
X147955000Y-78359000D01*
X155321000Y-80010000D02*
X152400000Y-80010000D01*
X152400000Y-80010000D02*
X151130000Y-78740000D01*
X139065000Y-78359000D02*
X138811000Y-78105000D01*
X143256000Y-78359000D02*
X139065000Y-78359000D01*
X172847000Y-99441000D02*
X172847000Y-99822000D01*
X170053000Y-96647000D02*
X172847000Y-99441000D01*
X136398000Y-128524000D02*
X137922000Y-130048000D01*
X144018000Y-129794000D02*
X144018000Y-127762000D01*
X143764000Y-130048000D02*
X144018000Y-129794000D01*
X137922000Y-130048000D02*
X143764000Y-130048000D01*
X144272000Y-133858000D02*
X145034000Y-133858000D01*
X145034000Y-133858000D02*
X148320000Y-137144000D01*
X147066000Y-135890000D02*
X145034000Y-133858000D01*
X147066000Y-135890000D02*
X148320000Y-137144000D01*
X115570000Y-123571000D02*
X115570000Y-124714000D01*
X115570000Y-124714000D02*
X117856000Y-127000000D01*
X117856000Y-127000000D02*
X117856000Y-128016000D01*
X117856000Y-128016000D02*
X121666000Y-131826000D01*
X121666000Y-131826000D02*
X122428000Y-131826000D01*
X122428000Y-131826000D02*
X124460000Y-133858000D01*
X124460000Y-133858000D02*
X144272000Y-133858000D01*
X148320000Y-137144000D02*
X149098000Y-137144000D01*
X115570000Y-124460000D02*
X115570000Y-123571000D01*
X128778000Y-75692000D02*
X134366000Y-75692000D01*
X134366000Y-75692000D02*
X137160000Y-72898000D01*
X137160000Y-72898000D02*
X137160000Y-72136000D01*
X111760000Y-115316000D02*
X111760000Y-117348000D01*
X115570000Y-121158000D02*
X115570000Y-123571000D01*
X111760000Y-117348000D02*
X115570000Y-121158000D01*
X110490000Y-106426000D02*
X110490000Y-108712000D01*
X113792000Y-113284000D02*
X111760000Y-115316000D01*
X113792000Y-112014000D02*
X113792000Y-113284000D01*
X110490000Y-108712000D02*
X113792000Y-112014000D01*
X111760000Y-96266000D02*
X111760000Y-101092000D01*
X112522000Y-104394000D02*
X110490000Y-106426000D01*
X112522000Y-101854000D02*
X112522000Y-104394000D01*
X111760000Y-101092000D02*
X112522000Y-101854000D01*
X115570000Y-87376000D02*
X115570000Y-92456000D01*
X115570000Y-92456000D02*
X111760000Y-96266000D01*
X121285000Y-80391000D02*
X121285000Y-84709000D01*
X118618000Y-87376000D02*
X115570000Y-87376000D01*
X121285000Y-84709000D02*
X118618000Y-87376000D01*
X128778000Y-75692000D02*
X128778000Y-76454000D01*
X128778000Y-76454000D02*
X124841000Y-80391000D01*
X124841000Y-80391000D02*
X121285000Y-80391000D01*
X139700000Y-72136000D02*
X147320000Y-72136000D01*
X140970000Y-83566000D02*
X146050000Y-83566000D01*
X152146000Y-135890000D02*
X152146000Y-135382000D01*
X152400000Y-136144000D02*
X152146000Y-135890000D01*
X120523000Y-129159000D02*
X122047000Y-129159000D01*
X122047000Y-129159000D02*
X125730000Y-132842000D01*
X152146000Y-135382000D02*
X149606000Y-132842000D01*
X149606000Y-132842000D02*
X125730000Y-132842000D01*
X119126000Y-126365000D02*
X120650000Y-124841000D01*
X119126000Y-127762000D02*
X119126000Y-126365000D01*
X120523000Y-129159000D02*
X119126000Y-127762000D01*
X118110000Y-117856000D02*
X118110000Y-122301000D01*
X118110000Y-122301000D02*
X120650000Y-124841000D01*
X115570000Y-108966000D02*
X117348000Y-110744000D01*
X117094000Y-116840000D02*
X118110000Y-117856000D01*
X117094000Y-113030000D02*
X117094000Y-116840000D01*
X117348000Y-112776000D02*
X117094000Y-113030000D01*
X117348000Y-110744000D02*
X117348000Y-112776000D01*
X115570000Y-101981000D02*
X115570000Y-108966000D01*
X119380000Y-96266000D02*
X118872000Y-96266000D01*
X118872000Y-96266000D02*
X115570000Y-99568000D01*
X115570000Y-99568000D02*
X115570000Y-101981000D01*
X124460000Y-89916000D02*
X122428000Y-89916000D01*
X119380000Y-92964000D02*
X119380000Y-96266000D01*
X122428000Y-89916000D02*
X119380000Y-92964000D01*
X130810000Y-86106000D02*
X126746000Y-86106000D01*
X124460000Y-88392000D02*
X124460000Y-89916000D01*
X126746000Y-86106000D02*
X124460000Y-88392000D01*
X138430000Y-83566000D02*
X132334000Y-83566000D01*
X130810000Y-85090000D02*
X130810000Y-86106000D01*
X132334000Y-83566000D02*
X130810000Y-85090000D01*
X133350000Y-86106000D02*
X153670000Y-86106000D01*
X129286000Y-89916000D02*
X136525000Y-89916000D01*
X149352000Y-89916000D02*
X160020000Y-89916000D01*
X148717000Y-89281000D02*
X149352000Y-89916000D01*
X137160000Y-89281000D02*
X148717000Y-89281000D01*
X136525000Y-89916000D02*
X137160000Y-89281000D01*
X127000000Y-89916000D02*
X129286000Y-89916000D01*
X135128000Y-96774000D02*
X132842000Y-96774000D01*
X132842000Y-96774000D02*
X132334000Y-97282000D01*
X126238000Y-102616000D02*
X127000000Y-102616000D01*
X127000000Y-102616000D02*
X132334000Y-97282000D01*
X144018000Y-95758000D02*
X136144000Y-95758000D01*
X136144000Y-95758000D02*
X135128000Y-96774000D01*
X160020000Y-102616000D02*
X158750000Y-102616000D01*
X153162000Y-97028000D02*
X151384000Y-97028000D01*
X158750000Y-102616000D02*
X153162000Y-97028000D01*
X151384000Y-97028000D02*
X151130000Y-96774000D01*
X150114000Y-95758000D02*
X144018000Y-95758000D01*
X151384000Y-97028000D02*
X151130000Y-96774000D01*
X151130000Y-96774000D02*
X150114000Y-95758000D01*
X136652000Y-98298000D02*
X135636000Y-99314000D01*
X133604000Y-99314000D02*
X133350000Y-99568000D01*
X135636000Y-99314000D02*
X133604000Y-99314000D01*
X147574000Y-98298000D02*
X148336000Y-99060000D01*
X153162000Y-100584000D02*
X154051000Y-100584000D01*
X151638000Y-99060000D02*
X153162000Y-100584000D01*
X148336000Y-99060000D02*
X151638000Y-99060000D01*
X121920000Y-110236000D02*
X123952000Y-110236000D01*
X126492000Y-106426000D02*
X133350000Y-99568000D01*
X123952000Y-110236000D02*
X126238000Y-107950000D01*
X126238000Y-107950000D02*
X126238000Y-106680000D01*
X126238000Y-106680000D02*
X126492000Y-106426000D01*
X121920000Y-110236000D02*
X122682000Y-110236000D01*
X136652000Y-98298000D02*
X147574000Y-98298000D01*
X154051000Y-100584000D02*
X163322000Y-109855000D01*
X163322000Y-109855000D02*
X164084000Y-109855000D01*
X164084000Y-109855000D02*
X164465000Y-110236000D01*
X121920000Y-110236000D02*
X122174000Y-110236000D01*
X138684000Y-108204000D02*
X138684000Y-109728000D01*
X138684000Y-109728000D02*
X136144000Y-112268000D01*
X154686000Y-110744000D02*
X152654000Y-108712000D01*
X154686000Y-111252000D02*
X154686000Y-110744000D01*
X130810000Y-119126000D02*
X130810000Y-117094000D01*
X132207000Y-113411000D02*
X133350000Y-112268000D01*
X130810000Y-117094000D02*
X132207000Y-115697000D01*
X132207000Y-115697000D02*
X132207000Y-113411000D01*
X135128000Y-112268000D02*
X133350000Y-112268000D01*
X135128000Y-112268000D02*
X136144000Y-112268000D01*
X154686000Y-111252000D02*
X154686000Y-117602000D01*
X154686000Y-117602000D02*
X156210000Y-119126000D01*
X152654000Y-108712000D02*
X148590000Y-104648000D01*
X148590000Y-104648000D02*
X147828000Y-104648000D01*
X146558000Y-104648000D02*
X147828000Y-104648000D01*
X138684000Y-104648000D02*
X138684000Y-108204000D01*
X138684000Y-104648000D02*
X146558000Y-104648000D01*
X150622000Y-130810000D02*
X155194000Y-135382000D01*
X130556000Y-130810000D02*
X127762000Y-130810000D01*
X127762000Y-130810000D02*
X127000000Y-130048000D01*
X159512000Y-133096000D02*
X159512000Y-132334000D01*
X157226000Y-135382000D02*
X159512000Y-133096000D01*
X155194000Y-135382000D02*
X157226000Y-135382000D01*
X127000000Y-130048000D02*
X126746000Y-129794000D01*
X163830000Y-123571000D02*
X163830000Y-125984000D01*
X159512000Y-132334000D02*
X159512000Y-130556000D01*
X159512000Y-130302000D02*
X163830000Y-125984000D01*
X159512000Y-130556000D02*
X159512000Y-130302000D01*
X150622000Y-130810000D02*
X130556000Y-130810000D01*
X123190000Y-126238000D02*
X126746000Y-129794000D01*
X123190000Y-123571000D02*
X123190000Y-126238000D01*
X128778000Y-131826000D02*
X126746000Y-131826000D01*
X126746000Y-131826000D02*
X125984000Y-131064000D01*
X121199757Y-127320792D02*
X122240792Y-127320792D01*
X122240792Y-127320792D02*
X125984000Y-131064000D01*
X152019000Y-133731000D02*
X154686000Y-136398000D01*
X150114000Y-131826000D02*
X128778000Y-131826000D01*
X160591500Y-131254500D02*
X160591500Y-130619500D01*
X164023346Y-127187654D02*
X165397984Y-127187654D01*
X160591500Y-130619500D02*
X164023346Y-127187654D01*
X160591500Y-133413500D02*
X160591500Y-131254500D01*
X151638000Y-133350000D02*
X152019000Y-133731000D01*
X151638000Y-133350000D02*
X150114000Y-131826000D01*
X154686000Y-136398000D02*
X157734000Y-136398000D01*
X157734000Y-136398000D02*
X160591500Y-133540500D01*
X160591500Y-133540500D02*
X160591500Y-133413500D01*
X164658346Y-127187654D02*
X165397984Y-127187654D01*
X121199757Y-127320792D02*
X121199757Y-127549757D01*
X127508000Y-125730000D02*
X127508000Y-127889000D01*
X127508000Y-127889000D02*
X127635000Y-128016000D01*
X125222000Y-123444000D02*
X125222000Y-122936000D01*
X127508000Y-125730000D02*
X125222000Y-123444000D01*
X120650000Y-114046000D02*
X120650000Y-114554000D01*
X120650000Y-114554000D02*
X119888000Y-115316000D01*
X120269000Y-121031000D02*
X123190000Y-121031000D01*
X119888000Y-120650000D02*
X120269000Y-121031000D01*
X119888000Y-115316000D02*
X119888000Y-120650000D01*
X123190000Y-120904000D02*
X125222000Y-122936000D01*
X127635000Y-128016000D02*
X128016000Y-128016000D01*
X123190000Y-121031000D02*
X123190000Y-120396000D01*
X120142000Y-114554000D02*
X120650000Y-114046000D01*
X121920000Y-107696000D02*
X121158000Y-107696000D01*
X121158000Y-107696000D02*
X119634000Y-109220000D01*
X119634000Y-113030000D02*
X120650000Y-114046000D01*
X119634000Y-109220000D02*
X119634000Y-113030000D01*
X121920000Y-107696000D02*
X121920000Y-104394000D01*
X121920000Y-104394000D02*
X123698000Y-102616000D01*
X127000000Y-97536000D02*
X127000000Y-97790000D01*
X127000000Y-97790000D02*
X123698000Y-101092000D01*
X123698000Y-101092000D02*
X123698000Y-102616000D01*
X133985000Y-92456000D02*
X130810000Y-92456000D01*
X127000000Y-96266000D02*
X127000000Y-97536000D01*
X130810000Y-92456000D02*
X127000000Y-96266000D01*
X140335000Y-91186000D02*
X135255000Y-91186000D01*
X135255000Y-91186000D02*
X133985000Y-92456000D01*
X132715000Y-106426000D02*
X133240214Y-106426000D01*
X133240214Y-106426000D02*
X135073107Y-108258893D01*
X134861601Y-108346502D02*
X135073107Y-108258893D01*
X134861601Y-108346502D02*
X135073107Y-108258893D01*
X132080000Y-124206000D02*
X131826000Y-124206000D01*
X131826000Y-124206000D02*
X128270000Y-120650000D01*
X128270000Y-120650000D02*
X128270000Y-119126000D01*
X128270000Y-119126000D02*
X128270000Y-119888000D01*
X132080000Y-124206000D02*
X132080000Y-125222000D01*
X132080000Y-129286000D02*
X133350000Y-129286000D01*
X131318000Y-128524000D02*
X132080000Y-129286000D01*
X131318000Y-125984000D02*
X131318000Y-128524000D01*
X132080000Y-125222000D02*
X131318000Y-125984000D01*
X128270000Y-119126000D02*
X128270000Y-119634000D01*
X128270000Y-112776000D02*
X128270000Y-119126000D01*
X128524000Y-108966000D02*
X128524000Y-109220000D01*
X128524000Y-109220000D02*
X128270000Y-109474000D01*
X128270000Y-109474000D02*
X128270000Y-112776000D01*
X132715000Y-106426000D02*
X132080000Y-106426000D01*
X132080000Y-106426000D02*
X130175000Y-108331000D01*
X130175000Y-108331000D02*
X128524000Y-108966000D01*
X135890000Y-101346000D02*
X135128000Y-101346000D01*
X135128000Y-101346000D02*
X133350000Y-103124000D01*
X133350000Y-103124000D02*
X133350000Y-105791000D01*
X133350000Y-105791000D02*
X132715000Y-106426000D01*
X140970000Y-100076000D02*
X137160000Y-100076000D01*
X137160000Y-100076000D02*
X135890000Y-101346000D01*
X135073107Y-108258893D02*
X134928893Y-108258893D01*
X158750000Y-112776000D02*
X158750000Y-108966000D01*
X158750000Y-108966000D02*
X158242000Y-108458000D01*
X153670000Y-129286000D02*
X154686000Y-129286000D01*
X155448000Y-128524000D02*
X155448000Y-124714000D01*
X154686000Y-129286000D02*
X155448000Y-128524000D01*
X155448000Y-124714000D02*
X154940000Y-124206000D01*
X158750000Y-119126000D02*
X158750000Y-119634000D01*
X158750000Y-119634000D02*
X154940000Y-123444000D01*
X154940000Y-123444000D02*
X154940000Y-124206000D01*
X158750000Y-112776000D02*
X158750000Y-119126000D01*
X154305000Y-106426000D02*
X156210000Y-106426000D01*
X156210000Y-106426000D02*
X158242000Y-108458000D01*
X151130000Y-101346000D02*
X151384000Y-101346000D01*
X151384000Y-101346000D02*
X154305000Y-104267000D01*
X154305000Y-104267000D02*
X154305000Y-106426000D01*
X146050000Y-100076000D02*
X149860000Y-100076000D01*
X149860000Y-100076000D02*
X151130000Y-101346000D01*
X155702000Y-132842000D02*
X156464000Y-132080000D01*
X156464000Y-132080000D02*
X156464000Y-130048000D01*
X163830000Y-121031000D02*
X163195000Y-121031000D01*
X163195000Y-121031000D02*
X159258000Y-124968000D01*
X159258000Y-124968000D02*
X159258000Y-127889000D01*
X159258000Y-127889000D02*
X159385000Y-128016000D01*
X165735000Y-114046000D02*
X165735000Y-119253000D01*
X165735000Y-119253000D02*
X163957000Y-121031000D01*
X163957000Y-121031000D02*
X163830000Y-121031000D01*
X164465000Y-107696000D02*
X164846000Y-107696000D01*
X164846000Y-107696000D02*
X166624000Y-109474000D01*
X166624000Y-113157000D02*
X165735000Y-114046000D01*
X166624000Y-109474000D02*
X166624000Y-113157000D01*
X162560000Y-102616000D02*
X162560000Y-103886000D01*
X164465000Y-105791000D02*
X164465000Y-107696000D01*
X162560000Y-103886000D02*
X164465000Y-105791000D01*
X158750000Y-97536000D02*
X162052000Y-100838000D01*
X162052000Y-100838000D02*
X162052000Y-102108000D01*
X162052000Y-102108000D02*
X162560000Y-102616000D01*
X152400000Y-92456000D02*
X153670000Y-92456000D01*
X153670000Y-92456000D02*
X158750000Y-97536000D01*
X146685000Y-91186000D02*
X151130000Y-91186000D01*
X151130000Y-91186000D02*
X152400000Y-92456000D01*
X164465000Y-128905000D02*
X167005000Y-128905000D01*
X161798000Y-131064000D02*
X164465000Y-128905000D01*
X168148000Y-126492000D02*
X166497000Y-124841000D01*
X168148000Y-127762000D02*
X168148000Y-126492000D01*
X167005000Y-128905000D02*
X168148000Y-127762000D01*
X166497000Y-124841000D02*
X166370000Y-124841000D01*
X166370000Y-125222000D02*
X166370000Y-124841000D01*
X168910000Y-117856000D02*
X168910000Y-122301000D01*
X168910000Y-122301000D02*
X166370000Y-124841000D01*
X171450000Y-108966000D02*
X170942000Y-108966000D01*
X170942000Y-108966000D02*
X168656000Y-111252000D01*
X168656000Y-111252000D02*
X168656000Y-117602000D01*
X168656000Y-117602000D02*
X168910000Y-117856000D01*
X171450000Y-101981000D02*
X171450000Y-108966000D01*
X167640000Y-96266000D02*
X167640000Y-98171000D01*
X167640000Y-98171000D02*
X171450000Y-101981000D01*
X162560000Y-89916000D02*
X163322000Y-89916000D01*
X163322000Y-89916000D02*
X167640000Y-94234000D01*
X167640000Y-94234000D02*
X167640000Y-96266000D01*
X156210000Y-86106000D02*
X159766000Y-86106000D01*
X162560000Y-88900000D02*
X162560000Y-89916000D01*
X159766000Y-86106000D02*
X162560000Y-88900000D01*
X148590000Y-83566000D02*
X153670000Y-83566000D01*
X153670000Y-83566000D02*
X156210000Y-86106000D01*
X149860000Y-72136000D02*
X150622000Y-72136000D01*
X150622000Y-72136000D02*
X154940000Y-76454000D01*
X154940000Y-76454000D02*
X157480000Y-76454000D01*
X157480000Y-76454000D02*
X158242000Y-75692000D01*
X175260000Y-115316000D02*
X175260000Y-117856000D01*
X175260000Y-117856000D02*
X172974000Y-120142000D01*
X172974000Y-120142000D02*
X171958000Y-120142000D01*
X171958000Y-120142000D02*
X170815000Y-121285000D01*
X170815000Y-121285000D02*
X170815000Y-124206000D01*
X176530000Y-106426000D02*
X176530000Y-108204000D01*
X173482000Y-115316000D02*
X175260000Y-115316000D01*
X173228000Y-115062000D02*
X173482000Y-115316000D01*
X173228000Y-111506000D02*
X173228000Y-115062000D01*
X176530000Y-108204000D02*
X173228000Y-111506000D01*
X175260000Y-96266000D02*
X175260000Y-100330000D01*
X175006000Y-106426000D02*
X176530000Y-106426000D01*
X174244000Y-105664000D02*
X175006000Y-106426000D01*
X174244000Y-101346000D02*
X174244000Y-105664000D01*
X175260000Y-100330000D02*
X174244000Y-101346000D01*
X172085000Y-88011000D02*
X172085000Y-94869000D01*
X173482000Y-96266000D02*
X175260000Y-96266000D01*
X172085000Y-94869000D02*
X173482000Y-96266000D01*
X165735000Y-80391000D02*
X165735000Y-84963000D01*
X171196000Y-88900000D02*
X172085000Y-88011000D01*
X169672000Y-88900000D02*
X171196000Y-88900000D01*
X165735000Y-84963000D02*
X169672000Y-88900000D01*
X158242000Y-75692000D02*
X158242000Y-77724000D01*
X161544000Y-81026000D02*
X165100000Y-81026000D01*
X158242000Y-77724000D02*
X161544000Y-81026000D01*
X165100000Y-81026000D02*
X165735000Y-80391000D01*
X153416000Y-118364000D02*
X153924000Y-118364000D01*
X153924000Y-121920000D02*
X153416000Y-121920000D01*
X154178000Y-121666000D02*
X153924000Y-121920000D01*
X154178000Y-118618000D02*
X154178000Y-121666000D01*
X153924000Y-118364000D02*
X154178000Y-118618000D01*
X150876000Y-121920000D02*
X153416000Y-121920000D01*
X150876000Y-121920000D02*
X147320000Y-121920000D01*
X153416000Y-118364000D02*
X151130000Y-118364000D01*
X145288000Y-110236000D02*
X150622000Y-110236000D01*
X150622000Y-110236000D02*
X151130000Y-110744000D01*
X151130000Y-110744000D02*
X151130000Y-118364000D01*
X152654000Y-120892000D02*
X149594000Y-120892000D01*
X149594000Y-120892000D02*
X145796000Y-117094000D01*
X147828000Y-126985860D02*
X146312623Y-128247237D01*
X147828000Y-126492000D02*
X147828000Y-126985860D01*
X144780000Y-123444000D02*
X147828000Y-126492000D01*
X144780000Y-120396000D02*
X144780000Y-123444000D01*
X143764000Y-119380000D02*
X144780000Y-120396000D01*
X146895417Y-128488638D02*
X146312623Y-128247237D01*
X152654000Y-119392000D02*
X150888000Y-119392000D01*
X149352000Y-114808000D02*
X143002000Y-114808000D01*
X150114000Y-115570000D02*
X149352000Y-114808000D01*
X150114000Y-118618000D02*
X150114000Y-115570000D01*
X150888000Y-119392000D02*
X150114000Y-118618000D01*
X131318000Y-121920000D02*
X135382000Y-121920000D01*
X130302000Y-120904000D02*
X131318000Y-121920000D01*
X123952000Y-118618000D02*
X124968000Y-119634000D01*
X122174000Y-118618000D02*
X123952000Y-118618000D01*
X121158000Y-117602000D02*
X122174000Y-118618000D01*
X121158000Y-116586000D02*
X121158000Y-117602000D01*
X120904000Y-116332000D02*
X121158000Y-116586000D01*
X118364000Y-106172000D02*
X118364000Y-113538000D01*
X119888000Y-104648000D02*
X118364000Y-106172000D01*
X128016000Y-103124000D02*
X125222000Y-105918000D01*
X123952000Y-105918000D02*
X123444000Y-105410000D01*
X125222000Y-105918000D02*
X123952000Y-105918000D01*
X144780000Y-97028000D02*
X136398000Y-97028000D01*
X133096000Y-98044000D02*
X128016000Y-103124000D01*
X135382000Y-98044000D02*
X133096000Y-98044000D01*
X136398000Y-97028000D02*
X135382000Y-98044000D01*
X149606000Y-96774000D02*
X149606000Y-97028000D01*
X152654000Y-98044000D02*
X153924000Y-99314000D01*
X150622000Y-98044000D02*
X152654000Y-98044000D01*
X149606000Y-97028000D02*
X150622000Y-98044000D01*
X145034000Y-96774000D02*
X149606000Y-96774000D01*
X144780000Y-97028000D02*
X145034000Y-96774000D01*
X134620000Y-135128000D02*
X140462000Y-135128000D01*
X134620000Y-137160000D02*
X134620000Y-135128000D01*
X134366000Y-137414000D02*
X134620000Y-137160000D01*
X141224000Y-116586000D02*
X136124000Y-116586000D01*
X136124000Y-116586000D02*
X135636000Y-117074000D01*
X135636000Y-117074000D02*
X135643237Y-117081237D01*
X152654000Y-131318000D02*
X155702000Y-134366000D01*
X158242000Y-131572000D02*
X157988000Y-131318000D01*
X158242000Y-132842000D02*
X158242000Y-131572000D01*
X156718000Y-134366000D02*
X158242000Y-132842000D01*
X155702000Y-134366000D02*
X156718000Y-134366000D01*
X151638000Y-130302000D02*
X152654000Y-131318000D01*
X151638000Y-125476000D02*
X151638000Y-130302000D01*
X152400000Y-124714000D02*
X151638000Y-125476000D01*
X134330645Y-110344858D02*
X134511142Y-110344858D01*
X134511142Y-110344858D02*
X135128000Y-109728000D01*
X135128000Y-109728000D02*
X136398000Y-109728000D01*
X149098000Y-133858000D02*
X148148000Y-134808000D01*
X148148000Y-134808000D02*
X148148000Y-135144000D01*
X138176000Y-127508000D02*
X140462000Y-127508000D01*
X141224000Y-126746000D02*
X142494000Y-126746000D01*
X140462000Y-127508000D02*
X141224000Y-126746000D01*
X145923000Y-122555000D02*
X145923000Y-123063000D01*
X145923000Y-123063000D02*
X147066000Y-124206000D01*
X145923000Y-119253000D02*
X145923000Y-122555000D01*
X145796000Y-119126000D02*
X145923000Y-119253000D01*
X147066000Y-124206000D02*
X147574000Y-124714000D01*
D26*
G36*
X146440209Y-136515788D02*
X146440210Y-136515790D01*
X147068421Y-137144000D01*
X147226390Y-137301969D01*
X146974552Y-137314770D01*
X146596077Y-137471540D01*
X146528088Y-137712483D01*
X147320000Y-138504395D01*
X147334143Y-138490253D01*
X147513748Y-138669858D01*
X147499605Y-138684000D01*
X147513748Y-138698143D01*
X147334143Y-138877748D01*
X147320000Y-138863605D01*
X147305858Y-138877748D01*
X147126253Y-138698143D01*
X147140395Y-138684000D01*
X146348483Y-137892088D01*
X146107540Y-137960077D01*
X145922799Y-138479171D01*
X145950770Y-139029448D01*
X146098707Y-139386599D01*
X145191000Y-139567153D01*
X145191000Y-138842750D01*
X145032250Y-138684000D01*
X143383000Y-138684000D01*
X143383000Y-138704000D01*
X143129000Y-138704000D01*
X143129000Y-138684000D01*
X141479750Y-138684000D01*
X141321000Y-138842750D01*
X141321000Y-139466106D01*
X135147062Y-138238033D01*
X135327645Y-138057765D01*
X135500803Y-137640756D01*
X135501197Y-137189225D01*
X135499841Y-137185942D01*
X135505001Y-137160000D01*
X135505000Y-137159995D01*
X135505000Y-136013000D01*
X139741724Y-136013000D01*
X139818235Y-136089645D01*
X140235244Y-136262803D01*
X140686775Y-136263197D01*
X141104086Y-136090767D01*
X141309133Y-135886077D01*
X141283091Y-136017000D01*
X141407548Y-136642687D01*
X141645231Y-136998406D01*
X141596301Y-137018673D01*
X141417673Y-137197302D01*
X141321000Y-137430691D01*
X141321000Y-138271250D01*
X141479750Y-138430000D01*
X143129000Y-138430000D01*
X143129000Y-138410000D01*
X143383000Y-138410000D01*
X143383000Y-138430000D01*
X145032250Y-138430000D01*
X145191000Y-138271250D01*
X145191000Y-137430691D01*
X145094327Y-137197302D01*
X144915699Y-137018673D01*
X144866769Y-136998406D01*
X145104452Y-136642687D01*
X145228909Y-136017000D01*
X145104452Y-135391313D01*
X144750029Y-134860880D01*
X144573609Y-134743000D01*
X144667420Y-134743000D01*
X146440209Y-136515788D01*
X146440209Y-136515788D01*
G37*
X146440209Y-136515788D02*
X146440210Y-136515790D01*
X147068421Y-137144000D01*
X147226390Y-137301969D01*
X146974552Y-137314770D01*
X146596077Y-137471540D01*
X146528088Y-137712483D01*
X147320000Y-138504395D01*
X147334143Y-138490253D01*
X147513748Y-138669858D01*
X147499605Y-138684000D01*
X147513748Y-138698143D01*
X147334143Y-138877748D01*
X147320000Y-138863605D01*
X147305858Y-138877748D01*
X147126253Y-138698143D01*
X147140395Y-138684000D01*
X146348483Y-137892088D01*
X146107540Y-137960077D01*
X145922799Y-138479171D01*
X145950770Y-139029448D01*
X146098707Y-139386599D01*
X145191000Y-139567153D01*
X145191000Y-138842750D01*
X145032250Y-138684000D01*
X143383000Y-138684000D01*
X143383000Y-138704000D01*
X143129000Y-138704000D01*
X143129000Y-138684000D01*
X141479750Y-138684000D01*
X141321000Y-138842750D01*
X141321000Y-139466106D01*
X135147062Y-138238033D01*
X135327645Y-138057765D01*
X135500803Y-137640756D01*
X135501197Y-137189225D01*
X135499841Y-137185942D01*
X135505001Y-137160000D01*
X135505000Y-137159995D01*
X135505000Y-136013000D01*
X139741724Y-136013000D01*
X139818235Y-136089645D01*
X140235244Y-136262803D01*
X140686775Y-136263197D01*
X141104086Y-136090767D01*
X141309133Y-135886077D01*
X141283091Y-136017000D01*
X141407548Y-136642687D01*
X141645231Y-136998406D01*
X141596301Y-137018673D01*
X141417673Y-137197302D01*
X141321000Y-137430691D01*
X141321000Y-138271250D01*
X141479750Y-138430000D01*
X143129000Y-138430000D01*
X143129000Y-138410000D01*
X143383000Y-138410000D01*
X143383000Y-138430000D01*
X145032250Y-138430000D01*
X145191000Y-138271250D01*
X145191000Y-137430691D01*
X145094327Y-137197302D01*
X144915699Y-137018673D01*
X144866769Y-136998406D01*
X145104452Y-136642687D01*
X145228909Y-136017000D01*
X145104452Y-135391313D01*
X144750029Y-134860880D01*
X144573609Y-134743000D01*
X144667420Y-134743000D01*
X146440209Y-136515788D01*
G36*
X150175000Y-135017000D02*
X150195000Y-135017000D01*
X150195000Y-135271000D01*
X150175000Y-135271000D01*
X150175000Y-136070250D01*
X150333750Y-136229000D01*
X150574310Y-136229000D01*
X150807699Y-136132327D01*
X150986327Y-135953698D01*
X151083000Y-135720309D01*
X151083000Y-135570579D01*
X151261000Y-135748579D01*
X151261000Y-135889995D01*
X151260999Y-135890000D01*
X151266023Y-135915255D01*
X151265197Y-135917244D01*
X151264803Y-136368775D01*
X151437233Y-136786086D01*
X151756235Y-137105645D01*
X152173244Y-137278803D01*
X152624775Y-137279197D01*
X153042086Y-137106767D01*
X153361645Y-136787765D01*
X153497357Y-136460936D01*
X154060208Y-137023787D01*
X154060210Y-137023790D01*
X154184395Y-137106767D01*
X154347326Y-137215634D01*
X154686000Y-137283001D01*
X154686005Y-137283000D01*
X156674212Y-137283000D01*
X148716040Y-138865979D01*
X148689230Y-138338552D01*
X148644519Y-138230610D01*
X148698000Y-138241440D01*
X149498000Y-138241440D01*
X149733317Y-138197162D01*
X149949441Y-138058090D01*
X150094431Y-137845890D01*
X150145440Y-137594000D01*
X150145440Y-136694000D01*
X150101162Y-136458683D01*
X149962090Y-136242559D01*
X149835314Y-136155936D01*
X149921000Y-136070250D01*
X149921000Y-135271000D01*
X149901000Y-135271000D01*
X149901000Y-135017000D01*
X149921000Y-135017000D01*
X149921000Y-134997000D01*
X150175000Y-134997000D01*
X150175000Y-135017000D01*
X150175000Y-135017000D01*
G37*
X150175000Y-135017000D02*
X150195000Y-135017000D01*
X150195000Y-135271000D01*
X150175000Y-135271000D01*
X150175000Y-136070250D01*
X150333750Y-136229000D01*
X150574310Y-136229000D01*
X150807699Y-136132327D01*
X150986327Y-135953698D01*
X151083000Y-135720309D01*
X151083000Y-135570579D01*
X151261000Y-135748579D01*
X151261000Y-135889995D01*
X151260999Y-135890000D01*
X151266023Y-135915255D01*
X151265197Y-135917244D01*
X151264803Y-136368775D01*
X151437233Y-136786086D01*
X151756235Y-137105645D01*
X152173244Y-137278803D01*
X152624775Y-137279197D01*
X153042086Y-137106767D01*
X153361645Y-136787765D01*
X153497357Y-136460936D01*
X154060208Y-137023787D01*
X154060210Y-137023790D01*
X154184395Y-137106767D01*
X154347326Y-137215634D01*
X154686000Y-137283001D01*
X154686005Y-137283000D01*
X156674212Y-137283000D01*
X148716040Y-138865979D01*
X148689230Y-138338552D01*
X148644519Y-138230610D01*
X148698000Y-138241440D01*
X149498000Y-138241440D01*
X149733317Y-138197162D01*
X149949441Y-138058090D01*
X150094431Y-137845890D01*
X150145440Y-137594000D01*
X150145440Y-136694000D01*
X150101162Y-136458683D01*
X149962090Y-136242559D01*
X149835314Y-136155936D01*
X149921000Y-136070250D01*
X149921000Y-135271000D01*
X149901000Y-135271000D01*
X149901000Y-135017000D01*
X149921000Y-135017000D01*
X149921000Y-134997000D01*
X150175000Y-134997000D01*
X150175000Y-135017000D01*
G36*
X133485197Y-134901244D02*
X133484803Y-135352775D01*
X133657233Y-135770086D01*
X133735000Y-135847989D01*
X133735000Y-136446652D01*
X133723914Y-136451233D01*
X133404355Y-136770235D01*
X133231197Y-137187244D01*
X133230803Y-137638775D01*
X133328986Y-137876395D01*
X130213463Y-137256679D01*
X126451477Y-134743000D01*
X133550906Y-134743000D01*
X133485197Y-134901244D01*
X133485197Y-134901244D01*
G37*
X133485197Y-134901244D02*
X133484803Y-135352775D01*
X133657233Y-135770086D01*
X133735000Y-135847989D01*
X133735000Y-136446652D01*
X133723914Y-136451233D01*
X133404355Y-136770235D01*
X133231197Y-137187244D01*
X133230803Y-137638775D01*
X133328986Y-137876395D01*
X130213463Y-137256679D01*
X126451477Y-134743000D01*
X133550906Y-134743000D01*
X133485197Y-134901244D01*
G36*
X143573500Y-106680000D02*
X143593500Y-106680000D01*
X143593500Y-106934000D01*
X143573500Y-106934000D01*
X143573500Y-108577777D01*
X143806785Y-108687635D01*
X143646210Y-108848210D01*
X143454367Y-109135325D01*
X143454367Y-109135326D01*
X143386999Y-109474000D01*
X143387000Y-109474005D01*
X143387000Y-111393421D01*
X142884210Y-111896210D01*
X142884208Y-111896213D01*
X141106210Y-113674210D01*
X140914367Y-113961325D01*
X140914367Y-113961326D01*
X140846999Y-114300000D01*
X140847000Y-114300005D01*
X140847000Y-115315995D01*
X140846999Y-115316000D01*
X140883338Y-115498687D01*
X140581914Y-115623233D01*
X140504011Y-115701000D01*
X136782025Y-115701000D01*
X136799327Y-115683698D01*
X136896000Y-115450309D01*
X136896000Y-114859750D01*
X136737250Y-114701000D01*
X135763000Y-114701000D01*
X135763000Y-114721000D01*
X135509000Y-114721000D01*
X135509000Y-114701000D01*
X134534750Y-114701000D01*
X134376000Y-114859750D01*
X134376000Y-115450309D01*
X134472673Y-115683698D01*
X134613910Y-115824936D01*
X134559559Y-115859910D01*
X134414569Y-116072110D01*
X134363560Y-116324000D01*
X134363560Y-117824000D01*
X134407838Y-118059317D01*
X134546910Y-118275441D01*
X134759110Y-118420431D01*
X135011000Y-118471440D01*
X136261000Y-118471440D01*
X136496317Y-118427162D01*
X136712441Y-118288090D01*
X136857431Y-118075890D01*
X136908440Y-117824000D01*
X136908440Y-117471000D01*
X140503724Y-117471000D01*
X140580235Y-117547645D01*
X140997244Y-117720803D01*
X141448775Y-117721197D01*
X141609000Y-117654993D01*
X141609000Y-124591000D01*
X140462005Y-124591000D01*
X140462000Y-124590999D01*
X140179516Y-124647190D01*
X140123325Y-124658367D01*
X139836210Y-124850210D01*
X139836208Y-124850213D01*
X139583523Y-125102897D01*
X139475225Y-125102803D01*
X139057914Y-125275233D01*
X138738355Y-125594235D01*
X138565197Y-126011244D01*
X138564822Y-126440493D01*
X138402756Y-126373197D01*
X137951225Y-126372803D01*
X137533914Y-126545233D01*
X137214355Y-126864235D01*
X137041197Y-127281244D01*
X137040803Y-127732775D01*
X137213233Y-128150086D01*
X137532235Y-128469645D01*
X137949244Y-128642803D01*
X138400775Y-128643197D01*
X138818086Y-128470767D01*
X138895989Y-128393000D01*
X140461995Y-128393000D01*
X140462000Y-128393001D01*
X140744484Y-128336810D01*
X140800675Y-128325633D01*
X141087790Y-128133790D01*
X141205074Y-128016505D01*
X141109241Y-128247298D01*
X141108760Y-128798285D01*
X141319169Y-129307515D01*
X141708436Y-129697461D01*
X142217298Y-129908759D01*
X142768285Y-129909240D01*
X143277515Y-129698831D01*
X143667461Y-129309564D01*
X143878759Y-128800702D01*
X143879240Y-128249715D01*
X143668831Y-127740485D01*
X143387064Y-127458226D01*
X143455645Y-127389765D01*
X143628803Y-126972756D01*
X143629069Y-126667925D01*
X144454308Y-127493164D01*
X144652011Y-127628249D01*
X144903173Y-127682733D01*
X145155744Y-127635209D01*
X145166872Y-127627829D01*
X145113267Y-127874939D01*
X145160791Y-128127510D01*
X145302836Y-128341692D01*
X145467110Y-128505966D01*
X145467538Y-128510022D01*
X145487026Y-128545880D01*
X145494989Y-128585912D01*
X145568904Y-128696532D01*
X145632430Y-128813419D01*
X145664160Y-128839092D01*
X145686834Y-128873026D01*
X145797450Y-128946937D01*
X145900876Y-129030620D01*
X145940014Y-129042196D01*
X145973948Y-129064870D01*
X146062830Y-129101686D01*
X146363496Y-129402352D01*
X146561199Y-129537437D01*
X146812361Y-129591921D01*
X147064932Y-129544397D01*
X147279114Y-129402352D01*
X148198352Y-128483114D01*
X148333437Y-128285411D01*
X148387921Y-128034249D01*
X148340397Y-127781678D01*
X148310120Y-127736025D01*
X148394182Y-127666053D01*
X148419852Y-127634326D01*
X148453790Y-127611650D01*
X148527706Y-127501026D01*
X148611383Y-127397607D01*
X148622959Y-127358470D01*
X148645633Y-127324535D01*
X148671587Y-127194058D01*
X148709321Y-127066478D01*
X148705038Y-127025888D01*
X148713000Y-126985860D01*
X148713000Y-126492005D01*
X148713001Y-126492000D01*
X148645633Y-126153326D01*
X148645633Y-126153325D01*
X148453790Y-125866210D01*
X148453787Y-125866208D01*
X148240237Y-125652658D01*
X148535645Y-125357765D01*
X148708803Y-124940756D01*
X148709197Y-124489225D01*
X148536767Y-124071914D01*
X148217765Y-123752355D01*
X147800756Y-123579197D01*
X147690680Y-123579101D01*
X147166446Y-123054867D01*
X147544775Y-123055197D01*
X147962086Y-122882767D01*
X148039989Y-122805000D01*
X153645919Y-122805000D01*
X153588559Y-122841910D01*
X153443569Y-123054110D01*
X153392560Y-123306000D01*
X153392560Y-124144018D01*
X153362767Y-124071914D01*
X153043765Y-123752355D01*
X152626756Y-123579197D01*
X152175225Y-123578803D01*
X151757914Y-123751233D01*
X151438355Y-124070235D01*
X151265197Y-124487244D01*
X151265101Y-124597319D01*
X151012210Y-124850210D01*
X150820367Y-125137325D01*
X150820367Y-125137326D01*
X150752999Y-125476000D01*
X150753000Y-125476005D01*
X150753000Y-129951057D01*
X150622000Y-129924999D01*
X150621995Y-129925000D01*
X134897440Y-129925000D01*
X134897440Y-128386000D01*
X134853162Y-128150683D01*
X134714090Y-127934559D01*
X134501890Y-127789569D01*
X134481466Y-127785433D01*
X134650551Y-127616643D01*
X134884733Y-127052670D01*
X134885265Y-126442009D01*
X134652068Y-125877629D01*
X134220643Y-125445449D01*
X133656670Y-125211267D01*
X133606132Y-125211223D01*
X133627440Y-125106000D01*
X133627440Y-123306000D01*
X133583162Y-123070683D01*
X133444090Y-122854559D01*
X133371558Y-122805000D01*
X134661724Y-122805000D01*
X134738235Y-122881645D01*
X135155244Y-123054803D01*
X135606775Y-123055197D01*
X136024086Y-122882767D01*
X136162383Y-122744711D01*
X136217179Y-122826719D01*
X136666506Y-123126949D01*
X137043456Y-123201929D01*
X137083887Y-123416805D01*
X137225932Y-123630987D01*
X138286593Y-124691648D01*
X138484296Y-124826733D01*
X138735458Y-124881217D01*
X138988029Y-124833693D01*
X139202211Y-124691648D01*
X140439648Y-123454211D01*
X140574733Y-123256508D01*
X140629217Y-123005346D01*
X140581693Y-122752775D01*
X140439648Y-122538593D01*
X139378987Y-121477932D01*
X139181284Y-121342847D01*
X138949348Y-121292534D01*
X138874950Y-120918506D01*
X138574719Y-120469179D01*
X138125392Y-120168948D01*
X137595376Y-120063522D01*
X137530663Y-120076394D01*
X137543535Y-120011681D01*
X137438109Y-119481665D01*
X137137878Y-119032338D01*
X136688551Y-118732107D01*
X136158535Y-118626681D01*
X135628519Y-118732107D01*
X135179192Y-119032338D01*
X134780338Y-119431192D01*
X134480108Y-119880519D01*
X134374681Y-120410535D01*
X134480108Y-120940551D01*
X134543217Y-121035000D01*
X131684579Y-121035000D01*
X131437103Y-120787523D01*
X131437197Y-120679225D01*
X131383725Y-120549813D01*
X131678371Y-120428068D01*
X132110551Y-119996643D01*
X132344733Y-119432670D01*
X132345265Y-118822009D01*
X132112068Y-118257629D01*
X131695000Y-117839831D01*
X131695000Y-117460580D01*
X132832787Y-116322792D01*
X132832790Y-116322790D01*
X133024633Y-116035675D01*
X133092000Y-115697000D01*
X133092000Y-113777580D01*
X133171888Y-113697691D01*
X134376000Y-113697691D01*
X134376000Y-114288250D01*
X134534750Y-114447000D01*
X135509000Y-114447000D01*
X135509000Y-113347750D01*
X135763000Y-113347750D01*
X135763000Y-114447000D01*
X136737250Y-114447000D01*
X136896000Y-114288250D01*
X136896000Y-113697691D01*
X136799327Y-113464302D01*
X136620699Y-113285673D01*
X136387310Y-113189000D01*
X135921750Y-113189000D01*
X135763000Y-113347750D01*
X135509000Y-113347750D01*
X135350250Y-113189000D01*
X134884690Y-113189000D01*
X134651301Y-113285673D01*
X134472673Y-113464302D01*
X134376000Y-113697691D01*
X133171888Y-113697691D01*
X133716579Y-113153000D01*
X136143995Y-113153000D01*
X136144000Y-113153001D01*
X136426484Y-113096810D01*
X136482675Y-113085633D01*
X136769790Y-112893790D01*
X139309787Y-110353792D01*
X139309790Y-110353790D01*
X139501633Y-110066675D01*
X139569000Y-109728000D01*
X139569000Y-108029574D01*
X139750380Y-108301029D01*
X140280813Y-108655452D01*
X140906500Y-108779909D01*
X141532187Y-108655452D01*
X142062620Y-108301029D01*
X142189719Y-108110812D01*
X142380183Y-108352922D01*
X142938145Y-108666144D01*
X143066066Y-108697124D01*
X143319500Y-108577777D01*
X143319500Y-106934000D01*
X143299500Y-106934000D01*
X143299500Y-106680000D01*
X143319500Y-106680000D01*
X143319500Y-106660000D01*
X143573500Y-106660000D01*
X143573500Y-106680000D01*
X143573500Y-106680000D01*
G37*
X143573500Y-106680000D02*
X143593500Y-106680000D01*
X143593500Y-106934000D01*
X143573500Y-106934000D01*
X143573500Y-108577777D01*
X143806785Y-108687635D01*
X143646210Y-108848210D01*
X143454367Y-109135325D01*
X143454367Y-109135326D01*
X143386999Y-109474000D01*
X143387000Y-109474005D01*
X143387000Y-111393421D01*
X142884210Y-111896210D01*
X142884208Y-111896213D01*
X141106210Y-113674210D01*
X140914367Y-113961325D01*
X140914367Y-113961326D01*
X140846999Y-114300000D01*
X140847000Y-114300005D01*
X140847000Y-115315995D01*
X140846999Y-115316000D01*
X140883338Y-115498687D01*
X140581914Y-115623233D01*
X140504011Y-115701000D01*
X136782025Y-115701000D01*
X136799327Y-115683698D01*
X136896000Y-115450309D01*
X136896000Y-114859750D01*
X136737250Y-114701000D01*
X135763000Y-114701000D01*
X135763000Y-114721000D01*
X135509000Y-114721000D01*
X135509000Y-114701000D01*
X134534750Y-114701000D01*
X134376000Y-114859750D01*
X134376000Y-115450309D01*
X134472673Y-115683698D01*
X134613910Y-115824936D01*
X134559559Y-115859910D01*
X134414569Y-116072110D01*
X134363560Y-116324000D01*
X134363560Y-117824000D01*
X134407838Y-118059317D01*
X134546910Y-118275441D01*
X134759110Y-118420431D01*
X135011000Y-118471440D01*
X136261000Y-118471440D01*
X136496317Y-118427162D01*
X136712441Y-118288090D01*
X136857431Y-118075890D01*
X136908440Y-117824000D01*
X136908440Y-117471000D01*
X140503724Y-117471000D01*
X140580235Y-117547645D01*
X140997244Y-117720803D01*
X141448775Y-117721197D01*
X141609000Y-117654993D01*
X141609000Y-124591000D01*
X140462005Y-124591000D01*
X140462000Y-124590999D01*
X140179516Y-124647190D01*
X140123325Y-124658367D01*
X139836210Y-124850210D01*
X139836208Y-124850213D01*
X139583523Y-125102897D01*
X139475225Y-125102803D01*
X139057914Y-125275233D01*
X138738355Y-125594235D01*
X138565197Y-126011244D01*
X138564822Y-126440493D01*
X138402756Y-126373197D01*
X137951225Y-126372803D01*
X137533914Y-126545233D01*
X137214355Y-126864235D01*
X137041197Y-127281244D01*
X137040803Y-127732775D01*
X137213233Y-128150086D01*
X137532235Y-128469645D01*
X137949244Y-128642803D01*
X138400775Y-128643197D01*
X138818086Y-128470767D01*
X138895989Y-128393000D01*
X140461995Y-128393000D01*
X140462000Y-128393001D01*
X140744484Y-128336810D01*
X140800675Y-128325633D01*
X141087790Y-128133790D01*
X141205074Y-128016505D01*
X141109241Y-128247298D01*
X141108760Y-128798285D01*
X141319169Y-129307515D01*
X141708436Y-129697461D01*
X142217298Y-129908759D01*
X142768285Y-129909240D01*
X143277515Y-129698831D01*
X143667461Y-129309564D01*
X143878759Y-128800702D01*
X143879240Y-128249715D01*
X143668831Y-127740485D01*
X143387064Y-127458226D01*
X143455645Y-127389765D01*
X143628803Y-126972756D01*
X143629069Y-126667925D01*
X144454308Y-127493164D01*
X144652011Y-127628249D01*
X144903173Y-127682733D01*
X145155744Y-127635209D01*
X145166872Y-127627829D01*
X145113267Y-127874939D01*
X145160791Y-128127510D01*
X145302836Y-128341692D01*
X145467110Y-128505966D01*
X145467538Y-128510022D01*
X145487026Y-128545880D01*
X145494989Y-128585912D01*
X145568904Y-128696532D01*
X145632430Y-128813419D01*
X145664160Y-128839092D01*
X145686834Y-128873026D01*
X145797450Y-128946937D01*
X145900876Y-129030620D01*
X145940014Y-129042196D01*
X145973948Y-129064870D01*
X146062830Y-129101686D01*
X146363496Y-129402352D01*
X146561199Y-129537437D01*
X146812361Y-129591921D01*
X147064932Y-129544397D01*
X147279114Y-129402352D01*
X148198352Y-128483114D01*
X148333437Y-128285411D01*
X148387921Y-128034249D01*
X148340397Y-127781678D01*
X148310120Y-127736025D01*
X148394182Y-127666053D01*
X148419852Y-127634326D01*
X148453790Y-127611650D01*
X148527706Y-127501026D01*
X148611383Y-127397607D01*
X148622959Y-127358470D01*
X148645633Y-127324535D01*
X148671587Y-127194058D01*
X148709321Y-127066478D01*
X148705038Y-127025888D01*
X148713000Y-126985860D01*
X148713000Y-126492005D01*
X148713001Y-126492000D01*
X148645633Y-126153326D01*
X148645633Y-126153325D01*
X148453790Y-125866210D01*
X148453787Y-125866208D01*
X148240237Y-125652658D01*
X148535645Y-125357765D01*
X148708803Y-124940756D01*
X148709197Y-124489225D01*
X148536767Y-124071914D01*
X148217765Y-123752355D01*
X147800756Y-123579197D01*
X147690680Y-123579101D01*
X147166446Y-123054867D01*
X147544775Y-123055197D01*
X147962086Y-122882767D01*
X148039989Y-122805000D01*
X153645919Y-122805000D01*
X153588559Y-122841910D01*
X153443569Y-123054110D01*
X153392560Y-123306000D01*
X153392560Y-124144018D01*
X153362767Y-124071914D01*
X153043765Y-123752355D01*
X152626756Y-123579197D01*
X152175225Y-123578803D01*
X151757914Y-123751233D01*
X151438355Y-124070235D01*
X151265197Y-124487244D01*
X151265101Y-124597319D01*
X151012210Y-124850210D01*
X150820367Y-125137325D01*
X150820367Y-125137326D01*
X150752999Y-125476000D01*
X150753000Y-125476005D01*
X150753000Y-129951057D01*
X150622000Y-129924999D01*
X150621995Y-129925000D01*
X134897440Y-129925000D01*
X134897440Y-128386000D01*
X134853162Y-128150683D01*
X134714090Y-127934559D01*
X134501890Y-127789569D01*
X134481466Y-127785433D01*
X134650551Y-127616643D01*
X134884733Y-127052670D01*
X134885265Y-126442009D01*
X134652068Y-125877629D01*
X134220643Y-125445449D01*
X133656670Y-125211267D01*
X133606132Y-125211223D01*
X133627440Y-125106000D01*
X133627440Y-123306000D01*
X133583162Y-123070683D01*
X133444090Y-122854559D01*
X133371558Y-122805000D01*
X134661724Y-122805000D01*
X134738235Y-122881645D01*
X135155244Y-123054803D01*
X135606775Y-123055197D01*
X136024086Y-122882767D01*
X136162383Y-122744711D01*
X136217179Y-122826719D01*
X136666506Y-123126949D01*
X137043456Y-123201929D01*
X137083887Y-123416805D01*
X137225932Y-123630987D01*
X138286593Y-124691648D01*
X138484296Y-124826733D01*
X138735458Y-124881217D01*
X138988029Y-124833693D01*
X139202211Y-124691648D01*
X140439648Y-123454211D01*
X140574733Y-123256508D01*
X140629217Y-123005346D01*
X140581693Y-122752775D01*
X140439648Y-122538593D01*
X139378987Y-121477932D01*
X139181284Y-121342847D01*
X138949348Y-121292534D01*
X138874950Y-120918506D01*
X138574719Y-120469179D01*
X138125392Y-120168948D01*
X137595376Y-120063522D01*
X137530663Y-120076394D01*
X137543535Y-120011681D01*
X137438109Y-119481665D01*
X137137878Y-119032338D01*
X136688551Y-118732107D01*
X136158535Y-118626681D01*
X135628519Y-118732107D01*
X135179192Y-119032338D01*
X134780338Y-119431192D01*
X134480108Y-119880519D01*
X134374681Y-120410535D01*
X134480108Y-120940551D01*
X134543217Y-121035000D01*
X131684579Y-121035000D01*
X131437103Y-120787523D01*
X131437197Y-120679225D01*
X131383725Y-120549813D01*
X131678371Y-120428068D01*
X132110551Y-119996643D01*
X132344733Y-119432670D01*
X132345265Y-118822009D01*
X132112068Y-118257629D01*
X131695000Y-117839831D01*
X131695000Y-117460580D01*
X132832787Y-116322792D01*
X132832790Y-116322790D01*
X133024633Y-116035675D01*
X133092000Y-115697000D01*
X133092000Y-113777580D01*
X133171888Y-113697691D01*
X134376000Y-113697691D01*
X134376000Y-114288250D01*
X134534750Y-114447000D01*
X135509000Y-114447000D01*
X135509000Y-113347750D01*
X135763000Y-113347750D01*
X135763000Y-114447000D01*
X136737250Y-114447000D01*
X136896000Y-114288250D01*
X136896000Y-113697691D01*
X136799327Y-113464302D01*
X136620699Y-113285673D01*
X136387310Y-113189000D01*
X135921750Y-113189000D01*
X135763000Y-113347750D01*
X135509000Y-113347750D01*
X135350250Y-113189000D01*
X134884690Y-113189000D01*
X134651301Y-113285673D01*
X134472673Y-113464302D01*
X134376000Y-113697691D01*
X133171888Y-113697691D01*
X133716579Y-113153000D01*
X136143995Y-113153000D01*
X136144000Y-113153001D01*
X136426484Y-113096810D01*
X136482675Y-113085633D01*
X136769790Y-112893790D01*
X139309787Y-110353792D01*
X139309790Y-110353790D01*
X139501633Y-110066675D01*
X139569000Y-109728000D01*
X139569000Y-108029574D01*
X139750380Y-108301029D01*
X140280813Y-108655452D01*
X140906500Y-108779909D01*
X141532187Y-108655452D01*
X142062620Y-108301029D01*
X142189719Y-108110812D01*
X142380183Y-108352922D01*
X142938145Y-108666144D01*
X143066066Y-108697124D01*
X143319500Y-108577777D01*
X143319500Y-106934000D01*
X143299500Y-106934000D01*
X143299500Y-106680000D01*
X143319500Y-106680000D01*
X143319500Y-106660000D01*
X143573500Y-106660000D01*
X143573500Y-106680000D01*
G36*
X162696208Y-110480787D02*
X162696210Y-110480790D01*
X162983325Y-110672633D01*
X162984650Y-110672897D01*
X163162932Y-111104371D01*
X163594357Y-111536551D01*
X164158330Y-111770733D01*
X164768991Y-111771265D01*
X165333371Y-111538068D01*
X165739000Y-111133148D01*
X165739000Y-112126760D01*
X165491373Y-112173354D01*
X165277191Y-112315399D01*
X164004399Y-113588191D01*
X163869314Y-113785894D01*
X163814830Y-114037056D01*
X163862354Y-114289627D01*
X163873872Y-114306994D01*
X163634958Y-114306786D01*
X163070578Y-114539983D01*
X162638398Y-114971408D01*
X162404216Y-115535381D01*
X162403684Y-116146042D01*
X162636881Y-116710422D01*
X163068306Y-117142602D01*
X163632279Y-117376784D01*
X164242940Y-117377316D01*
X164807320Y-117144119D01*
X164850000Y-117101514D01*
X164850000Y-118886421D01*
X164252861Y-119483560D01*
X162930000Y-119483560D01*
X162694683Y-119527838D01*
X162478559Y-119666910D01*
X162333569Y-119879110D01*
X162282560Y-120131000D01*
X162282560Y-120691861D01*
X159015215Y-123959205D01*
X159015265Y-123902009D01*
X158782068Y-123337629D01*
X158350643Y-122905449D01*
X157786670Y-122671267D01*
X157176009Y-122670735D01*
X156816157Y-122819423D01*
X158962139Y-120673440D01*
X159650000Y-120673440D01*
X159885317Y-120629162D01*
X160101441Y-120490090D01*
X160246431Y-120277890D01*
X160297440Y-120026000D01*
X160297440Y-118226000D01*
X160253162Y-117990683D01*
X160114090Y-117774559D01*
X159901890Y-117629569D01*
X159650000Y-117578560D01*
X159635000Y-117578560D01*
X159635000Y-114079410D01*
X160480601Y-113233809D01*
X160615686Y-113036106D01*
X160670170Y-112784944D01*
X160622646Y-112532373D01*
X160480601Y-112318191D01*
X159635000Y-111472590D01*
X159635000Y-109253410D01*
X159972601Y-108915809D01*
X160107686Y-108718106D01*
X160162170Y-108466944D01*
X160114646Y-108214373D01*
X159972601Y-108000191D01*
X158699809Y-106727399D01*
X158502106Y-106592314D01*
X158250944Y-106537830D01*
X157998373Y-106585354D01*
X157784191Y-106727399D01*
X157773585Y-106738005D01*
X156968131Y-105932551D01*
X156969422Y-105932017D01*
X157401602Y-105500592D01*
X157493851Y-105278431D01*
X162696208Y-110480787D01*
X162696208Y-110480787D01*
G37*
X162696208Y-110480787D02*
X162696210Y-110480790D01*
X162983325Y-110672633D01*
X162984650Y-110672897D01*
X163162932Y-111104371D01*
X163594357Y-111536551D01*
X164158330Y-111770733D01*
X164768991Y-111771265D01*
X165333371Y-111538068D01*
X165739000Y-111133148D01*
X165739000Y-112126760D01*
X165491373Y-112173354D01*
X165277191Y-112315399D01*
X164004399Y-113588191D01*
X163869314Y-113785894D01*
X163814830Y-114037056D01*
X163862354Y-114289627D01*
X163873872Y-114306994D01*
X163634958Y-114306786D01*
X163070578Y-114539983D01*
X162638398Y-114971408D01*
X162404216Y-115535381D01*
X162403684Y-116146042D01*
X162636881Y-116710422D01*
X163068306Y-117142602D01*
X163632279Y-117376784D01*
X164242940Y-117377316D01*
X164807320Y-117144119D01*
X164850000Y-117101514D01*
X164850000Y-118886421D01*
X164252861Y-119483560D01*
X162930000Y-119483560D01*
X162694683Y-119527838D01*
X162478559Y-119666910D01*
X162333569Y-119879110D01*
X162282560Y-120131000D01*
X162282560Y-120691861D01*
X159015215Y-123959205D01*
X159015265Y-123902009D01*
X158782068Y-123337629D01*
X158350643Y-122905449D01*
X157786670Y-122671267D01*
X157176009Y-122670735D01*
X156816157Y-122819423D01*
X158962139Y-120673440D01*
X159650000Y-120673440D01*
X159885317Y-120629162D01*
X160101441Y-120490090D01*
X160246431Y-120277890D01*
X160297440Y-120026000D01*
X160297440Y-118226000D01*
X160253162Y-117990683D01*
X160114090Y-117774559D01*
X159901890Y-117629569D01*
X159650000Y-117578560D01*
X159635000Y-117578560D01*
X159635000Y-114079410D01*
X160480601Y-113233809D01*
X160615686Y-113036106D01*
X160670170Y-112784944D01*
X160622646Y-112532373D01*
X160480601Y-112318191D01*
X159635000Y-111472590D01*
X159635000Y-109253410D01*
X159972601Y-108915809D01*
X160107686Y-108718106D01*
X160162170Y-108466944D01*
X160114646Y-108214373D01*
X159972601Y-108000191D01*
X158699809Y-106727399D01*
X158502106Y-106592314D01*
X158250944Y-106537830D01*
X157998373Y-106585354D01*
X157784191Y-106727399D01*
X157773585Y-106738005D01*
X156968131Y-105932551D01*
X156969422Y-105932017D01*
X157401602Y-105500592D01*
X157493851Y-105278431D01*
X162696208Y-110480787D01*
G36*
X159149357Y-91216551D02*
X159713330Y-91450733D01*
X160323991Y-91451265D01*
X160888371Y-91218068D01*
X161056613Y-91050120D01*
X161056838Y-91051317D01*
X161195910Y-91267441D01*
X161408110Y-91412431D01*
X161660000Y-91463440D01*
X163460000Y-91463440D01*
X163592861Y-91438441D01*
X166755000Y-94600579D01*
X166755000Y-94718560D01*
X166740000Y-94718560D01*
X166504683Y-94762838D01*
X166288559Y-94901910D01*
X166143569Y-95114110D01*
X166139433Y-95134534D01*
X165970643Y-94965449D01*
X165406670Y-94731267D01*
X164796009Y-94730735D01*
X164231629Y-94963932D01*
X163799449Y-95395357D01*
X163565267Y-95959330D01*
X163564735Y-96569991D01*
X163797932Y-97134371D01*
X164229357Y-97566551D01*
X164793330Y-97800733D01*
X165403991Y-97801265D01*
X165968371Y-97568068D01*
X166136613Y-97400120D01*
X166136838Y-97401317D01*
X166275910Y-97617441D01*
X166488110Y-97762431D01*
X166740000Y-97813440D01*
X166755000Y-97813440D01*
X166755000Y-98170995D01*
X166754999Y-98171000D01*
X166806319Y-98428999D01*
X166822367Y-98509675D01*
X166963786Y-98721325D01*
X167014210Y-98796790D01*
X169730005Y-101512585D01*
X169719399Y-101523191D01*
X169584314Y-101720894D01*
X169529830Y-101972056D01*
X169577354Y-102224627D01*
X169588872Y-102241994D01*
X169349958Y-102241786D01*
X168785578Y-102474983D01*
X168353398Y-102906408D01*
X168119216Y-103470381D01*
X168118684Y-104081042D01*
X168351881Y-104645422D01*
X168783306Y-105077602D01*
X169347279Y-105311784D01*
X169957940Y-105312316D01*
X170522320Y-105079119D01*
X170565000Y-105036514D01*
X170565000Y-107418560D01*
X170550000Y-107418560D01*
X170314683Y-107462838D01*
X170098559Y-107601910D01*
X169953569Y-107814110D01*
X169902560Y-108066000D01*
X169902560Y-108753861D01*
X168030210Y-110626210D01*
X167838367Y-110913325D01*
X167838367Y-110913326D01*
X167770999Y-111252000D01*
X167771000Y-111252005D01*
X167771000Y-116355208D01*
X167558559Y-116491910D01*
X167413569Y-116704110D01*
X167362560Y-116956000D01*
X167362560Y-118756000D01*
X167406838Y-118991317D01*
X167545910Y-119207441D01*
X167758110Y-119352431D01*
X168010000Y-119403440D01*
X168025000Y-119403440D01*
X168025000Y-121934421D01*
X166669359Y-123290062D01*
X166130689Y-123066937D01*
X165896340Y-123017792D01*
X165643447Y-123063571D01*
X165428288Y-123204132D01*
X165365238Y-123297791D01*
X165365265Y-123267009D01*
X165132068Y-122702629D01*
X164964120Y-122534387D01*
X164965317Y-122534162D01*
X165181441Y-122395090D01*
X165326431Y-122182890D01*
X165377440Y-121931000D01*
X165377440Y-120862140D01*
X166360787Y-119878792D01*
X166360790Y-119878790D01*
X166552633Y-119591675D01*
X166568680Y-119511000D01*
X166620001Y-119253000D01*
X166620000Y-119252995D01*
X166620000Y-115349410D01*
X167465601Y-114503809D01*
X167600686Y-114306106D01*
X167655170Y-114054944D01*
X167607646Y-113802373D01*
X167465601Y-113588191D01*
X167414177Y-113536767D01*
X167441633Y-113495675D01*
X167458476Y-113411000D01*
X167509001Y-113157000D01*
X167509000Y-113156995D01*
X167509000Y-109474005D01*
X167509001Y-109474000D01*
X167441633Y-109135326D01*
X167441633Y-109135325D01*
X167249790Y-108848210D01*
X167249787Y-108848208D01*
X166012440Y-107610860D01*
X166012440Y-106796000D01*
X165968162Y-106560683D01*
X165829090Y-106344559D01*
X165616890Y-106199569D01*
X165365000Y-106148560D01*
X165350000Y-106148560D01*
X165350000Y-105791005D01*
X165350001Y-105791000D01*
X165282633Y-105452326D01*
X165282633Y-105452325D01*
X165090790Y-105165210D01*
X165090787Y-105165208D01*
X163907929Y-103982350D01*
X163911441Y-103980090D01*
X164056431Y-103767890D01*
X164107440Y-103516000D01*
X164107440Y-101716000D01*
X164063162Y-101480683D01*
X163924090Y-101264559D01*
X163711890Y-101119569D01*
X163460000Y-101068560D01*
X162937000Y-101068560D01*
X162937000Y-100838005D01*
X162937001Y-100838000D01*
X162869633Y-100499325D01*
X162844025Y-100461000D01*
X162677790Y-100212210D01*
X162677787Y-100212208D01*
X160297440Y-97831860D01*
X160297440Y-96636000D01*
X160253162Y-96400683D01*
X160114090Y-96184559D01*
X159901890Y-96039569D01*
X159650000Y-95988560D01*
X158454139Y-95988560D01*
X154295790Y-91830210D01*
X154268222Y-91811790D01*
X154008675Y-91638367D01*
X153952484Y-91627190D01*
X153947440Y-91626187D01*
X153947440Y-91556000D01*
X153903162Y-91320683D01*
X153764090Y-91104559D01*
X153551890Y-90959569D01*
X153300000Y-90908560D01*
X152104140Y-90908560D01*
X151996580Y-90801000D01*
X158734532Y-90801000D01*
X159149357Y-91216551D01*
X159149357Y-91216551D01*
G37*
X159149357Y-91216551D02*
X159713330Y-91450733D01*
X160323991Y-91451265D01*
X160888371Y-91218068D01*
X161056613Y-91050120D01*
X161056838Y-91051317D01*
X161195910Y-91267441D01*
X161408110Y-91412431D01*
X161660000Y-91463440D01*
X163460000Y-91463440D01*
X163592861Y-91438441D01*
X166755000Y-94600579D01*
X166755000Y-94718560D01*
X166740000Y-94718560D01*
X166504683Y-94762838D01*
X166288559Y-94901910D01*
X166143569Y-95114110D01*
X166139433Y-95134534D01*
X165970643Y-94965449D01*
X165406670Y-94731267D01*
X164796009Y-94730735D01*
X164231629Y-94963932D01*
X163799449Y-95395357D01*
X163565267Y-95959330D01*
X163564735Y-96569991D01*
X163797932Y-97134371D01*
X164229357Y-97566551D01*
X164793330Y-97800733D01*
X165403991Y-97801265D01*
X165968371Y-97568068D01*
X166136613Y-97400120D01*
X166136838Y-97401317D01*
X166275910Y-97617441D01*
X166488110Y-97762431D01*
X166740000Y-97813440D01*
X166755000Y-97813440D01*
X166755000Y-98170995D01*
X166754999Y-98171000D01*
X166806319Y-98428999D01*
X166822367Y-98509675D01*
X166963786Y-98721325D01*
X167014210Y-98796790D01*
X169730005Y-101512585D01*
X169719399Y-101523191D01*
X169584314Y-101720894D01*
X169529830Y-101972056D01*
X169577354Y-102224627D01*
X169588872Y-102241994D01*
X169349958Y-102241786D01*
X168785578Y-102474983D01*
X168353398Y-102906408D01*
X168119216Y-103470381D01*
X168118684Y-104081042D01*
X168351881Y-104645422D01*
X168783306Y-105077602D01*
X169347279Y-105311784D01*
X169957940Y-105312316D01*
X170522320Y-105079119D01*
X170565000Y-105036514D01*
X170565000Y-107418560D01*
X170550000Y-107418560D01*
X170314683Y-107462838D01*
X170098559Y-107601910D01*
X169953569Y-107814110D01*
X169902560Y-108066000D01*
X169902560Y-108753861D01*
X168030210Y-110626210D01*
X167838367Y-110913325D01*
X167838367Y-110913326D01*
X167770999Y-111252000D01*
X167771000Y-111252005D01*
X167771000Y-116355208D01*
X167558559Y-116491910D01*
X167413569Y-116704110D01*
X167362560Y-116956000D01*
X167362560Y-118756000D01*
X167406838Y-118991317D01*
X167545910Y-119207441D01*
X167758110Y-119352431D01*
X168010000Y-119403440D01*
X168025000Y-119403440D01*
X168025000Y-121934421D01*
X166669359Y-123290062D01*
X166130689Y-123066937D01*
X165896340Y-123017792D01*
X165643447Y-123063571D01*
X165428288Y-123204132D01*
X165365238Y-123297791D01*
X165365265Y-123267009D01*
X165132068Y-122702629D01*
X164964120Y-122534387D01*
X164965317Y-122534162D01*
X165181441Y-122395090D01*
X165326431Y-122182890D01*
X165377440Y-121931000D01*
X165377440Y-120862140D01*
X166360787Y-119878792D01*
X166360790Y-119878790D01*
X166552633Y-119591675D01*
X166568680Y-119511000D01*
X166620001Y-119253000D01*
X166620000Y-119252995D01*
X166620000Y-115349410D01*
X167465601Y-114503809D01*
X167600686Y-114306106D01*
X167655170Y-114054944D01*
X167607646Y-113802373D01*
X167465601Y-113588191D01*
X167414177Y-113536767D01*
X167441633Y-113495675D01*
X167458476Y-113411000D01*
X167509001Y-113157000D01*
X167509000Y-113156995D01*
X167509000Y-109474005D01*
X167509001Y-109474000D01*
X167441633Y-109135326D01*
X167441633Y-109135325D01*
X167249790Y-108848210D01*
X167249787Y-108848208D01*
X166012440Y-107610860D01*
X166012440Y-106796000D01*
X165968162Y-106560683D01*
X165829090Y-106344559D01*
X165616890Y-106199569D01*
X165365000Y-106148560D01*
X165350000Y-106148560D01*
X165350000Y-105791005D01*
X165350001Y-105791000D01*
X165282633Y-105452326D01*
X165282633Y-105452325D01*
X165090790Y-105165210D01*
X165090787Y-105165208D01*
X163907929Y-103982350D01*
X163911441Y-103980090D01*
X164056431Y-103767890D01*
X164107440Y-103516000D01*
X164107440Y-101716000D01*
X164063162Y-101480683D01*
X163924090Y-101264559D01*
X163711890Y-101119569D01*
X163460000Y-101068560D01*
X162937000Y-101068560D01*
X162937000Y-100838005D01*
X162937001Y-100838000D01*
X162869633Y-100499325D01*
X162844025Y-100461000D01*
X162677790Y-100212210D01*
X162677787Y-100212208D01*
X160297440Y-97831860D01*
X160297440Y-96636000D01*
X160253162Y-96400683D01*
X160114090Y-96184559D01*
X159901890Y-96039569D01*
X159650000Y-95988560D01*
X158454139Y-95988560D01*
X154295790Y-91830210D01*
X154268222Y-91811790D01*
X154008675Y-91638367D01*
X153952484Y-91627190D01*
X153947440Y-91626187D01*
X153947440Y-91556000D01*
X153903162Y-91320683D01*
X153764090Y-91104559D01*
X153551890Y-90959569D01*
X153300000Y-90908560D01*
X152104140Y-90908560D01*
X151996580Y-90801000D01*
X158734532Y-90801000D01*
X159149357Y-91216551D01*
G36*
X155651881Y-115440422D02*
X156083306Y-115872602D01*
X156647279Y-116106784D01*
X157257940Y-116107316D01*
X157822320Y-115874119D01*
X157865000Y-115831514D01*
X157865000Y-117578560D01*
X157850000Y-117578560D01*
X157614683Y-117622838D01*
X157398559Y-117761910D01*
X157253569Y-117974110D01*
X157249433Y-117994534D01*
X157080643Y-117825449D01*
X156516670Y-117591267D01*
X155926332Y-117590753D01*
X155571000Y-117235420D01*
X155571000Y-115244675D01*
X155651881Y-115440422D01*
X155651881Y-115440422D01*
G37*
X155651881Y-115440422D02*
X156083306Y-115872602D01*
X156647279Y-116106784D01*
X157257940Y-116107316D01*
X157822320Y-115874119D01*
X157865000Y-115831514D01*
X157865000Y-117578560D01*
X157850000Y-117578560D01*
X157614683Y-117622838D01*
X157398559Y-117761910D01*
X157253569Y-117974110D01*
X157249433Y-117994534D01*
X157080643Y-117825449D01*
X156516670Y-117591267D01*
X155926332Y-117590753D01*
X155571000Y-117235420D01*
X155571000Y-115244675D01*
X155651881Y-115440422D01*
G36*
X132421987Y-109970622D02*
X132592089Y-110140723D01*
X132825478Y-110237396D01*
X133078096Y-110237395D01*
X133114542Y-110222299D01*
X133082226Y-110371269D01*
X133129750Y-110623840D01*
X133271795Y-110838022D01*
X133816773Y-111383000D01*
X133350005Y-111383000D01*
X133350000Y-111382999D01*
X133011325Y-111450367D01*
X132724210Y-111642210D01*
X132724208Y-111642213D01*
X131581210Y-112785210D01*
X131389367Y-113072325D01*
X131389367Y-113072326D01*
X131321999Y-113411000D01*
X131322000Y-113411005D01*
X131322000Y-113657480D01*
X130936694Y-113271500D01*
X130372721Y-113037318D01*
X130134999Y-113037111D01*
X130135686Y-113036106D01*
X130190170Y-112784944D01*
X130142646Y-112532373D01*
X130000601Y-112318191D01*
X129155000Y-111472590D01*
X129155000Y-110760726D01*
X129250553Y-110743429D01*
X129465712Y-110602868D01*
X129477350Y-110585580D01*
X129568586Y-110806387D01*
X130000011Y-111238567D01*
X130563984Y-111472749D01*
X131174645Y-111473281D01*
X131739025Y-111240084D01*
X132171205Y-110808659D01*
X132405387Y-110244686D01*
X132405807Y-109762298D01*
X132421987Y-109746118D01*
X132421987Y-109970622D01*
X132421987Y-109970622D01*
G37*
X132421987Y-109970622D02*
X132592089Y-110140723D01*
X132825478Y-110237396D01*
X133078096Y-110237395D01*
X133114542Y-110222299D01*
X133082226Y-110371269D01*
X133129750Y-110623840D01*
X133271795Y-110838022D01*
X133816773Y-111383000D01*
X133350005Y-111383000D01*
X133350000Y-111382999D01*
X133011325Y-111450367D01*
X132724210Y-111642210D01*
X132724208Y-111642213D01*
X131581210Y-112785210D01*
X131389367Y-113072325D01*
X131389367Y-113072326D01*
X131321999Y-113411000D01*
X131322000Y-113411005D01*
X131322000Y-113657480D01*
X130936694Y-113271500D01*
X130372721Y-113037318D01*
X130134999Y-113037111D01*
X130135686Y-113036106D01*
X130190170Y-112784944D01*
X130142646Y-112532373D01*
X130000601Y-112318191D01*
X129155000Y-111472590D01*
X129155000Y-110760726D01*
X129250553Y-110743429D01*
X129465712Y-110602868D01*
X129477350Y-110585580D01*
X129568586Y-110806387D01*
X130000011Y-111238567D01*
X130563984Y-111472749D01*
X131174645Y-111473281D01*
X131739025Y-111240084D01*
X132171205Y-110808659D01*
X132405387Y-110244686D01*
X132405807Y-109762298D01*
X132421987Y-109746118D01*
X132421987Y-109970622D01*
G36*
X146449357Y-73436551D02*
X147013330Y-73670733D01*
X147623991Y-73671265D01*
X148188371Y-73438068D01*
X148356613Y-73270120D01*
X148356838Y-73271317D01*
X148495910Y-73487441D01*
X148708110Y-73632431D01*
X148960000Y-73683440D01*
X150760000Y-73683440D01*
X150892861Y-73658441D01*
X154314208Y-77079787D01*
X154314210Y-77079790D01*
X154601325Y-77271633D01*
X154940000Y-77339001D01*
X154940005Y-77339000D01*
X157357000Y-77339000D01*
X157357000Y-77723995D01*
X157356999Y-77724000D01*
X157413190Y-78006484D01*
X157424367Y-78062675D01*
X157575110Y-78288279D01*
X157616210Y-78349790D01*
X160918208Y-81651787D01*
X160918210Y-81651790D01*
X161205325Y-81843633D01*
X161544000Y-81911001D01*
X161544005Y-81911000D01*
X164850000Y-81911000D01*
X164850000Y-84962995D01*
X164849999Y-84963000D01*
X164898336Y-85206000D01*
X164917367Y-85301675D01*
X165052124Y-85503354D01*
X165109210Y-85588790D01*
X169046208Y-89525787D01*
X169046210Y-89525790D01*
X169333325Y-89717633D01*
X169389516Y-89728810D01*
X169672000Y-89785001D01*
X169672005Y-89785000D01*
X171195995Y-89785000D01*
X171196000Y-89785001D01*
X171200000Y-89784205D01*
X171200000Y-94868995D01*
X171199999Y-94869000D01*
X171252052Y-95130683D01*
X171267367Y-95207675D01*
X171408786Y-95419325D01*
X171459210Y-95494790D01*
X172856208Y-96891787D01*
X172856210Y-96891790D01*
X173143325Y-97083633D01*
X173482000Y-97151000D01*
X173712560Y-97151000D01*
X173712560Y-97166000D01*
X173756838Y-97401317D01*
X173895910Y-97617441D01*
X174108110Y-97762431D01*
X174360000Y-97813440D01*
X174375000Y-97813440D01*
X174375000Y-99963421D01*
X173618210Y-100720210D01*
X173426367Y-101007325D01*
X173426367Y-101007326D01*
X173358999Y-101346000D01*
X173359000Y-101346005D01*
X173359000Y-101930580D01*
X173322646Y-101737373D01*
X173180601Y-101523191D01*
X171907809Y-100250399D01*
X171710106Y-100115314D01*
X171458944Y-100060830D01*
X171206373Y-100108354D01*
X170992191Y-100250399D01*
X170981585Y-100261005D01*
X168534020Y-97813440D01*
X168540000Y-97813440D01*
X168775317Y-97769162D01*
X168991441Y-97630090D01*
X169136431Y-97417890D01*
X169187440Y-97166000D01*
X169187440Y-95366000D01*
X169143162Y-95130683D01*
X169004090Y-94914559D01*
X168791890Y-94769569D01*
X168540000Y-94718560D01*
X168525000Y-94718560D01*
X168525000Y-94234005D01*
X168525001Y-94234000D01*
X168457633Y-93895325D01*
X168398911Y-93807441D01*
X168265790Y-93608210D01*
X168265787Y-93608208D01*
X164107440Y-89449860D01*
X164107440Y-89016000D01*
X164063162Y-88780683D01*
X163924090Y-88564559D01*
X163711890Y-88419569D01*
X163460000Y-88368560D01*
X163248832Y-88368560D01*
X163185790Y-88274210D01*
X163185787Y-88274208D01*
X160391790Y-85480210D01*
X160104675Y-85288367D01*
X160028823Y-85273279D01*
X159766000Y-85220999D01*
X159765995Y-85221000D01*
X157757440Y-85221000D01*
X157757440Y-85206000D01*
X157713162Y-84970683D01*
X157574090Y-84754559D01*
X157361890Y-84609569D01*
X157110000Y-84558560D01*
X155914139Y-84558560D01*
X154295790Y-82940210D01*
X154008675Y-82748367D01*
X153952484Y-82737190D01*
X153670000Y-82680999D01*
X153669995Y-82681000D01*
X150137440Y-82681000D01*
X150137440Y-82666000D01*
X150093162Y-82430683D01*
X149954090Y-82214559D01*
X149741890Y-82069569D01*
X149490000Y-82018560D01*
X147690000Y-82018560D01*
X147454683Y-82062838D01*
X147238559Y-82201910D01*
X147093569Y-82414110D01*
X147089433Y-82434534D01*
X146920643Y-82265449D01*
X146356670Y-82031267D01*
X145746009Y-82030735D01*
X145181629Y-82263932D01*
X144763831Y-82681000D01*
X142255468Y-82681000D01*
X141840643Y-82265449D01*
X141276670Y-82031267D01*
X140666009Y-82030735D01*
X140101629Y-82263932D01*
X139933387Y-82431880D01*
X139933162Y-82430683D01*
X139794090Y-82214559D01*
X139581890Y-82069569D01*
X139330000Y-82018560D01*
X137530000Y-82018560D01*
X137294683Y-82062838D01*
X137078559Y-82201910D01*
X136933569Y-82414110D01*
X136882560Y-82666000D01*
X136882560Y-82681000D01*
X132334000Y-82681000D01*
X131995325Y-82748367D01*
X131708210Y-82940210D01*
X131708208Y-82940213D01*
X130184210Y-84464210D01*
X130121168Y-84558560D01*
X129910000Y-84558560D01*
X129674683Y-84602838D01*
X129458559Y-84741910D01*
X129313569Y-84954110D01*
X129262560Y-85206000D01*
X129262560Y-85221000D01*
X126746005Y-85221000D01*
X126746000Y-85220999D01*
X126407325Y-85288367D01*
X126120210Y-85480210D01*
X126120208Y-85480213D01*
X123834210Y-87766210D01*
X123642367Y-88053325D01*
X123642367Y-88053326D01*
X123579662Y-88368560D01*
X123560000Y-88368560D01*
X123324683Y-88412838D01*
X123108559Y-88551910D01*
X122963569Y-88764110D01*
X122912560Y-89016000D01*
X122912560Y-89031000D01*
X122428005Y-89031000D01*
X122428000Y-89030999D01*
X122145516Y-89087190D01*
X122089325Y-89098367D01*
X121802210Y-89290210D01*
X121802208Y-89290213D01*
X118754210Y-92338210D01*
X118562367Y-92625325D01*
X118562367Y-92625326D01*
X118494999Y-92964000D01*
X118495000Y-92964005D01*
X118495000Y-94718560D01*
X118480000Y-94718560D01*
X118244683Y-94762838D01*
X118028559Y-94901910D01*
X117883569Y-95114110D01*
X117832560Y-95366000D01*
X117832560Y-96053861D01*
X114944210Y-98942210D01*
X114752367Y-99229325D01*
X114752367Y-99229326D01*
X114684999Y-99568000D01*
X114685000Y-99568005D01*
X114685000Y-100677590D01*
X113839399Y-101523191D01*
X113704314Y-101720894D01*
X113649830Y-101972056D01*
X113697354Y-102224627D01*
X113839399Y-102438809D01*
X114685000Y-103284410D01*
X114685000Y-107418560D01*
X114670000Y-107418560D01*
X114434683Y-107462838D01*
X114218559Y-107601910D01*
X114073569Y-107814110D01*
X114022560Y-108066000D01*
X114022560Y-109866000D01*
X114066838Y-110101317D01*
X114205910Y-110317441D01*
X114418110Y-110462431D01*
X114438534Y-110466567D01*
X114269449Y-110635357D01*
X114092082Y-111062503D01*
X111375000Y-108345420D01*
X111375000Y-107973440D01*
X111390000Y-107973440D01*
X111625317Y-107929162D01*
X111841441Y-107790090D01*
X111986431Y-107577890D01*
X112037440Y-107326000D01*
X112037440Y-106130140D01*
X113147787Y-105019792D01*
X113147790Y-105019790D01*
X113339633Y-104732675D01*
X113373918Y-104560314D01*
X113407001Y-104394000D01*
X113407000Y-104393995D01*
X113407000Y-101854005D01*
X113407001Y-101854000D01*
X113350810Y-101571516D01*
X113339633Y-101515325D01*
X113147790Y-101228210D01*
X113147787Y-101228208D01*
X112645000Y-100725420D01*
X112645000Y-97813440D01*
X112660000Y-97813440D01*
X112895317Y-97769162D01*
X113111441Y-97630090D01*
X113256431Y-97417890D01*
X113307440Y-97166000D01*
X113307440Y-95970140D01*
X116195787Y-93081792D01*
X116195790Y-93081790D01*
X116387633Y-92794675D01*
X116421319Y-92625325D01*
X116455001Y-92456000D01*
X116455000Y-92455995D01*
X116455000Y-88679410D01*
X116873410Y-88261000D01*
X118617995Y-88261000D01*
X118618000Y-88261001D01*
X118900484Y-88204810D01*
X118956675Y-88193633D01*
X119243790Y-88001790D01*
X121910787Y-85334792D01*
X121910790Y-85334790D01*
X122038975Y-85142946D01*
X122102634Y-85047674D01*
X122170001Y-84709000D01*
X122170000Y-84708995D01*
X122170000Y-81694410D01*
X122588410Y-81276000D01*
X124840995Y-81276000D01*
X124841000Y-81276001D01*
X125123484Y-81219810D01*
X125179675Y-81208633D01*
X125466790Y-81016790D01*
X125466791Y-81016789D01*
X128895132Y-77588447D01*
X129021627Y-77564646D01*
X129235809Y-77422601D01*
X130081410Y-76577000D01*
X134365995Y-76577000D01*
X134366000Y-76577001D01*
X134648484Y-76520810D01*
X134704675Y-76509633D01*
X134991790Y-76317790D01*
X134991791Y-76317789D01*
X137626139Y-73683440D01*
X138060000Y-73683440D01*
X138295317Y-73639162D01*
X138511441Y-73500090D01*
X138656431Y-73287890D01*
X138660567Y-73267466D01*
X138829357Y-73436551D01*
X139393330Y-73670733D01*
X140003991Y-73671265D01*
X140568371Y-73438068D01*
X140986169Y-73021000D01*
X146034532Y-73021000D01*
X146449357Y-73436551D01*
X146449357Y-73436551D01*
G37*
X146449357Y-73436551D02*
X147013330Y-73670733D01*
X147623991Y-73671265D01*
X148188371Y-73438068D01*
X148356613Y-73270120D01*
X148356838Y-73271317D01*
X148495910Y-73487441D01*
X148708110Y-73632431D01*
X148960000Y-73683440D01*
X150760000Y-73683440D01*
X150892861Y-73658441D01*
X154314208Y-77079787D01*
X154314210Y-77079790D01*
X154601325Y-77271633D01*
X154940000Y-77339001D01*
X154940005Y-77339000D01*
X157357000Y-77339000D01*
X157357000Y-77723995D01*
X157356999Y-77724000D01*
X157413190Y-78006484D01*
X157424367Y-78062675D01*
X157575110Y-78288279D01*
X157616210Y-78349790D01*
X160918208Y-81651787D01*
X160918210Y-81651790D01*
X161205325Y-81843633D01*
X161544000Y-81911001D01*
X161544005Y-81911000D01*
X164850000Y-81911000D01*
X164850000Y-84962995D01*
X164849999Y-84963000D01*
X164898336Y-85206000D01*
X164917367Y-85301675D01*
X165052124Y-85503354D01*
X165109210Y-85588790D01*
X169046208Y-89525787D01*
X169046210Y-89525790D01*
X169333325Y-89717633D01*
X169389516Y-89728810D01*
X169672000Y-89785001D01*
X169672005Y-89785000D01*
X171195995Y-89785000D01*
X171196000Y-89785001D01*
X171200000Y-89784205D01*
X171200000Y-94868995D01*
X171199999Y-94869000D01*
X171252052Y-95130683D01*
X171267367Y-95207675D01*
X171408786Y-95419325D01*
X171459210Y-95494790D01*
X172856208Y-96891787D01*
X172856210Y-96891790D01*
X173143325Y-97083633D01*
X173482000Y-97151000D01*
X173712560Y-97151000D01*
X173712560Y-97166000D01*
X173756838Y-97401317D01*
X173895910Y-97617441D01*
X174108110Y-97762431D01*
X174360000Y-97813440D01*
X174375000Y-97813440D01*
X174375000Y-99963421D01*
X173618210Y-100720210D01*
X173426367Y-101007325D01*
X173426367Y-101007326D01*
X173358999Y-101346000D01*
X173359000Y-101346005D01*
X173359000Y-101930580D01*
X173322646Y-101737373D01*
X173180601Y-101523191D01*
X171907809Y-100250399D01*
X171710106Y-100115314D01*
X171458944Y-100060830D01*
X171206373Y-100108354D01*
X170992191Y-100250399D01*
X170981585Y-100261005D01*
X168534020Y-97813440D01*
X168540000Y-97813440D01*
X168775317Y-97769162D01*
X168991441Y-97630090D01*
X169136431Y-97417890D01*
X169187440Y-97166000D01*
X169187440Y-95366000D01*
X169143162Y-95130683D01*
X169004090Y-94914559D01*
X168791890Y-94769569D01*
X168540000Y-94718560D01*
X168525000Y-94718560D01*
X168525000Y-94234005D01*
X168525001Y-94234000D01*
X168457633Y-93895325D01*
X168398911Y-93807441D01*
X168265790Y-93608210D01*
X168265787Y-93608208D01*
X164107440Y-89449860D01*
X164107440Y-89016000D01*
X164063162Y-88780683D01*
X163924090Y-88564559D01*
X163711890Y-88419569D01*
X163460000Y-88368560D01*
X163248832Y-88368560D01*
X163185790Y-88274210D01*
X163185787Y-88274208D01*
X160391790Y-85480210D01*
X160104675Y-85288367D01*
X160028823Y-85273279D01*
X159766000Y-85220999D01*
X159765995Y-85221000D01*
X157757440Y-85221000D01*
X157757440Y-85206000D01*
X157713162Y-84970683D01*
X157574090Y-84754559D01*
X157361890Y-84609569D01*
X157110000Y-84558560D01*
X155914139Y-84558560D01*
X154295790Y-82940210D01*
X154008675Y-82748367D01*
X153952484Y-82737190D01*
X153670000Y-82680999D01*
X153669995Y-82681000D01*
X150137440Y-82681000D01*
X150137440Y-82666000D01*
X150093162Y-82430683D01*
X149954090Y-82214559D01*
X149741890Y-82069569D01*
X149490000Y-82018560D01*
X147690000Y-82018560D01*
X147454683Y-82062838D01*
X147238559Y-82201910D01*
X147093569Y-82414110D01*
X147089433Y-82434534D01*
X146920643Y-82265449D01*
X146356670Y-82031267D01*
X145746009Y-82030735D01*
X145181629Y-82263932D01*
X144763831Y-82681000D01*
X142255468Y-82681000D01*
X141840643Y-82265449D01*
X141276670Y-82031267D01*
X140666009Y-82030735D01*
X140101629Y-82263932D01*
X139933387Y-82431880D01*
X139933162Y-82430683D01*
X139794090Y-82214559D01*
X139581890Y-82069569D01*
X139330000Y-82018560D01*
X137530000Y-82018560D01*
X137294683Y-82062838D01*
X137078559Y-82201910D01*
X136933569Y-82414110D01*
X136882560Y-82666000D01*
X136882560Y-82681000D01*
X132334000Y-82681000D01*
X131995325Y-82748367D01*
X131708210Y-82940210D01*
X131708208Y-82940213D01*
X130184210Y-84464210D01*
X130121168Y-84558560D01*
X129910000Y-84558560D01*
X129674683Y-84602838D01*
X129458559Y-84741910D01*
X129313569Y-84954110D01*
X129262560Y-85206000D01*
X129262560Y-85221000D01*
X126746005Y-85221000D01*
X126746000Y-85220999D01*
X126407325Y-85288367D01*
X126120210Y-85480210D01*
X126120208Y-85480213D01*
X123834210Y-87766210D01*
X123642367Y-88053325D01*
X123642367Y-88053326D01*
X123579662Y-88368560D01*
X123560000Y-88368560D01*
X123324683Y-88412838D01*
X123108559Y-88551910D01*
X122963569Y-88764110D01*
X122912560Y-89016000D01*
X122912560Y-89031000D01*
X122428005Y-89031000D01*
X122428000Y-89030999D01*
X122145516Y-89087190D01*
X122089325Y-89098367D01*
X121802210Y-89290210D01*
X121802208Y-89290213D01*
X118754210Y-92338210D01*
X118562367Y-92625325D01*
X118562367Y-92625326D01*
X118494999Y-92964000D01*
X118495000Y-92964005D01*
X118495000Y-94718560D01*
X118480000Y-94718560D01*
X118244683Y-94762838D01*
X118028559Y-94901910D01*
X117883569Y-95114110D01*
X117832560Y-95366000D01*
X117832560Y-96053861D01*
X114944210Y-98942210D01*
X114752367Y-99229325D01*
X114752367Y-99229326D01*
X114684999Y-99568000D01*
X114685000Y-99568005D01*
X114685000Y-100677590D01*
X113839399Y-101523191D01*
X113704314Y-101720894D01*
X113649830Y-101972056D01*
X113697354Y-102224627D01*
X113839399Y-102438809D01*
X114685000Y-103284410D01*
X114685000Y-107418560D01*
X114670000Y-107418560D01*
X114434683Y-107462838D01*
X114218559Y-107601910D01*
X114073569Y-107814110D01*
X114022560Y-108066000D01*
X114022560Y-109866000D01*
X114066838Y-110101317D01*
X114205910Y-110317441D01*
X114418110Y-110462431D01*
X114438534Y-110466567D01*
X114269449Y-110635357D01*
X114092082Y-111062503D01*
X111375000Y-108345420D01*
X111375000Y-107973440D01*
X111390000Y-107973440D01*
X111625317Y-107929162D01*
X111841441Y-107790090D01*
X111986431Y-107577890D01*
X112037440Y-107326000D01*
X112037440Y-106130140D01*
X113147787Y-105019792D01*
X113147790Y-105019790D01*
X113339633Y-104732675D01*
X113373918Y-104560314D01*
X113407001Y-104394000D01*
X113407000Y-104393995D01*
X113407000Y-101854005D01*
X113407001Y-101854000D01*
X113350810Y-101571516D01*
X113339633Y-101515325D01*
X113147790Y-101228210D01*
X113147787Y-101228208D01*
X112645000Y-100725420D01*
X112645000Y-97813440D01*
X112660000Y-97813440D01*
X112895317Y-97769162D01*
X113111441Y-97630090D01*
X113256431Y-97417890D01*
X113307440Y-97166000D01*
X113307440Y-95970140D01*
X116195787Y-93081792D01*
X116195790Y-93081790D01*
X116387633Y-92794675D01*
X116421319Y-92625325D01*
X116455001Y-92456000D01*
X116455000Y-92455995D01*
X116455000Y-88679410D01*
X116873410Y-88261000D01*
X118617995Y-88261000D01*
X118618000Y-88261001D01*
X118900484Y-88204810D01*
X118956675Y-88193633D01*
X119243790Y-88001790D01*
X121910787Y-85334792D01*
X121910790Y-85334790D01*
X122038975Y-85142946D01*
X122102634Y-85047674D01*
X122170001Y-84709000D01*
X122170000Y-84708995D01*
X122170000Y-81694410D01*
X122588410Y-81276000D01*
X124840995Y-81276000D01*
X124841000Y-81276001D01*
X125123484Y-81219810D01*
X125179675Y-81208633D01*
X125466790Y-81016790D01*
X125466791Y-81016789D01*
X128895132Y-77588447D01*
X129021627Y-77564646D01*
X129235809Y-77422601D01*
X130081410Y-76577000D01*
X134365995Y-76577000D01*
X134366000Y-76577001D01*
X134648484Y-76520810D01*
X134704675Y-76509633D01*
X134991790Y-76317790D01*
X134991791Y-76317789D01*
X137626139Y-73683440D01*
X138060000Y-73683440D01*
X138295317Y-73639162D01*
X138511441Y-73500090D01*
X138656431Y-73287890D01*
X138660567Y-73267466D01*
X138829357Y-73436551D01*
X139393330Y-73670733D01*
X140003991Y-73671265D01*
X140568371Y-73438068D01*
X140986169Y-73021000D01*
X146034532Y-73021000D01*
X146449357Y-73436551D01*
G36*
X134355267Y-103579330D02*
X134354735Y-104189991D01*
X134587932Y-104754371D01*
X135019357Y-105186551D01*
X135583330Y-105420733D01*
X136123479Y-105421204D01*
X136114088Y-105454483D01*
X136906000Y-106246395D01*
X136920143Y-106232253D01*
X137099748Y-106411858D01*
X137085605Y-106426000D01*
X137099748Y-106440143D01*
X136920143Y-106619748D01*
X136906000Y-106605605D01*
X136114088Y-107397517D01*
X136182077Y-107638460D01*
X136701171Y-107823201D01*
X137251448Y-107795230D01*
X137629923Y-107638460D01*
X137697911Y-107397519D01*
X137799000Y-107498608D01*
X137799000Y-109361421D01*
X137533089Y-109627332D01*
X137533197Y-109503225D01*
X137360767Y-109085914D01*
X137041765Y-108766355D01*
X136624756Y-108593197D01*
X136192445Y-108592820D01*
X136267042Y-108483644D01*
X136321526Y-108232482D01*
X136274002Y-107979911D01*
X136131957Y-107765729D01*
X135566271Y-107200043D01*
X135368568Y-107064958D01*
X135117406Y-107010474D01*
X135082782Y-107016989D01*
X134611206Y-106545413D01*
X134635170Y-106434944D01*
X134594947Y-106221171D01*
X135508799Y-106221171D01*
X135536770Y-106771448D01*
X135693540Y-107149923D01*
X135934483Y-107217912D01*
X136726395Y-106426000D01*
X135934483Y-105634088D01*
X135693540Y-105702077D01*
X135508799Y-106221171D01*
X134594947Y-106221171D01*
X134587646Y-106182373D01*
X134445601Y-105968191D01*
X134235000Y-105757590D01*
X134235000Y-103490580D01*
X134503689Y-103221891D01*
X134355267Y-103579330D01*
X134355267Y-103579330D01*
G37*
X134355267Y-103579330D02*
X134354735Y-104189991D01*
X134587932Y-104754371D01*
X135019357Y-105186551D01*
X135583330Y-105420733D01*
X136123479Y-105421204D01*
X136114088Y-105454483D01*
X136906000Y-106246395D01*
X136920143Y-106232253D01*
X137099748Y-106411858D01*
X137085605Y-106426000D01*
X137099748Y-106440143D01*
X136920143Y-106619748D01*
X136906000Y-106605605D01*
X136114088Y-107397517D01*
X136182077Y-107638460D01*
X136701171Y-107823201D01*
X137251448Y-107795230D01*
X137629923Y-107638460D01*
X137697911Y-107397519D01*
X137799000Y-107498608D01*
X137799000Y-109361421D01*
X137533089Y-109627332D01*
X137533197Y-109503225D01*
X137360767Y-109085914D01*
X137041765Y-108766355D01*
X136624756Y-108593197D01*
X136192445Y-108592820D01*
X136267042Y-108483644D01*
X136321526Y-108232482D01*
X136274002Y-107979911D01*
X136131957Y-107765729D01*
X135566271Y-107200043D01*
X135368568Y-107064958D01*
X135117406Y-107010474D01*
X135082782Y-107016989D01*
X134611206Y-106545413D01*
X134635170Y-106434944D01*
X134594947Y-106221171D01*
X135508799Y-106221171D01*
X135536770Y-106771448D01*
X135693540Y-107149923D01*
X135934483Y-107217912D01*
X136726395Y-106426000D01*
X135934483Y-105634088D01*
X135693540Y-105702077D01*
X135508799Y-106221171D01*
X134594947Y-106221171D01*
X134587646Y-106182373D01*
X134445601Y-105968191D01*
X134235000Y-105757590D01*
X134235000Y-103490580D01*
X134503689Y-103221891D01*
X134355267Y-103579330D01*
G36*
X132257191Y-108156601D02*
X132454894Y-108291686D01*
X132457683Y-108292291D01*
X132987142Y-108821750D01*
X133552297Y-108256595D01*
X133552297Y-108032088D01*
X133424809Y-107904601D01*
X133446022Y-107883388D01*
X133828833Y-108266198D01*
X133824688Y-108285304D01*
X133853081Y-108436200D01*
X133731902Y-108436200D01*
X133166747Y-109001355D01*
X133180890Y-109015498D01*
X133001285Y-109195103D01*
X132987142Y-109180960D01*
X132973000Y-109195103D01*
X132793395Y-109015498D01*
X132807537Y-109001355D01*
X132277737Y-108471555D01*
X132053231Y-108471555D01*
X131847774Y-108677011D01*
X131828126Y-108724446D01*
X131741297Y-108637465D01*
X131302372Y-108455208D01*
X131929085Y-107828495D01*
X132257191Y-108156601D01*
X132257191Y-108156601D01*
G37*
X132257191Y-108156601D02*
X132454894Y-108291686D01*
X132457683Y-108292291D01*
X132987142Y-108821750D01*
X133552297Y-108256595D01*
X133552297Y-108032088D01*
X133424809Y-107904601D01*
X133446022Y-107883388D01*
X133828833Y-108266198D01*
X133824688Y-108285304D01*
X133853081Y-108436200D01*
X133731902Y-108436200D01*
X133166747Y-109001355D01*
X133180890Y-109015498D01*
X133001285Y-109195103D01*
X132987142Y-109180960D01*
X132973000Y-109195103D01*
X132793395Y-109015498D01*
X132807537Y-109001355D01*
X132277737Y-108471555D01*
X132053231Y-108471555D01*
X131847774Y-108677011D01*
X131828126Y-108724446D01*
X131741297Y-108637465D01*
X131302372Y-108455208D01*
X131929085Y-107828495D01*
X132257191Y-108156601D01*
G36*
X122912560Y-90816000D02*
X122956838Y-91051317D01*
X123095910Y-91267441D01*
X123308110Y-91412431D01*
X123560000Y-91463440D01*
X125360000Y-91463440D01*
X125595317Y-91419162D01*
X125811441Y-91280090D01*
X125956431Y-91067890D01*
X125960567Y-91047466D01*
X126129357Y-91216551D01*
X126693330Y-91450733D01*
X127303991Y-91451265D01*
X127868371Y-91218068D01*
X128286169Y-90801000D01*
X134388421Y-90801000D01*
X134280861Y-90908560D01*
X133085000Y-90908560D01*
X132849683Y-90952838D01*
X132633559Y-91091910D01*
X132488569Y-91304110D01*
X132437560Y-91556000D01*
X132437560Y-91571000D01*
X130810005Y-91571000D01*
X130810000Y-91570999D01*
X130527516Y-91627190D01*
X130471325Y-91638367D01*
X130184210Y-91830210D01*
X130184208Y-91830213D01*
X126374210Y-95640210D01*
X126182367Y-95927325D01*
X126182367Y-95927326D01*
X126170187Y-95988560D01*
X126100000Y-95988560D01*
X125864683Y-96032838D01*
X125648559Y-96171910D01*
X125503569Y-96384110D01*
X125452560Y-96636000D01*
X125452560Y-98085861D01*
X123072210Y-100466210D01*
X122880367Y-100753325D01*
X122880367Y-100753326D01*
X122817662Y-101068560D01*
X122798000Y-101068560D01*
X122562683Y-101112838D01*
X122346559Y-101251910D01*
X122201569Y-101464110D01*
X122150560Y-101716000D01*
X122150560Y-102911860D01*
X121294210Y-103768210D01*
X121102367Y-104055325D01*
X121102367Y-104055326D01*
X121034999Y-104394000D01*
X121035000Y-104394005D01*
X121035000Y-106148560D01*
X121020000Y-106148560D01*
X120784683Y-106192838D01*
X120568559Y-106331910D01*
X120423569Y-106544110D01*
X120372560Y-106796000D01*
X120372560Y-107229861D01*
X119249000Y-108353420D01*
X119249000Y-106538580D01*
X120004477Y-105783103D01*
X120112775Y-105783197D01*
X120530086Y-105610767D01*
X120849645Y-105291765D01*
X121022803Y-104874756D01*
X121023197Y-104423225D01*
X120850767Y-104005914D01*
X120531765Y-103686355D01*
X120114756Y-103513197D01*
X119663225Y-103512803D01*
X119245914Y-103685233D01*
X118926355Y-104004235D01*
X118900800Y-104065779D01*
X118901316Y-103473060D01*
X118668119Y-102908680D01*
X118236694Y-102476500D01*
X117672721Y-102242318D01*
X117434999Y-102242111D01*
X117435686Y-102241106D01*
X117490170Y-101989944D01*
X117442646Y-101737373D01*
X117300601Y-101523191D01*
X116455000Y-100677590D01*
X116455000Y-99934580D01*
X118576139Y-97813440D01*
X120280000Y-97813440D01*
X120515317Y-97769162D01*
X120731441Y-97630090D01*
X120876431Y-97417890D01*
X120880567Y-97397466D01*
X121049357Y-97566551D01*
X121613330Y-97800733D01*
X122223991Y-97801265D01*
X122313022Y-97764478D01*
X122312760Y-98064285D01*
X122523169Y-98573515D01*
X122912436Y-98963461D01*
X123421298Y-99174759D01*
X123972285Y-99175240D01*
X124481515Y-98964831D01*
X124871461Y-98575564D01*
X125082759Y-98066702D01*
X125083240Y-97515715D01*
X124872831Y-97006485D01*
X124483564Y-96616539D01*
X123974702Y-96405241D01*
X123454879Y-96404787D01*
X123455265Y-95962009D01*
X123222068Y-95397629D01*
X122790643Y-94965449D01*
X122226670Y-94731267D01*
X121616009Y-94730735D01*
X121051629Y-94963932D01*
X120883387Y-95131880D01*
X120883162Y-95130683D01*
X120744090Y-94914559D01*
X120531890Y-94769569D01*
X120280000Y-94718560D01*
X120265000Y-94718560D01*
X120265000Y-93330580D01*
X122794579Y-90801000D01*
X122912560Y-90801000D01*
X122912560Y-90816000D01*
X122912560Y-90816000D01*
G37*
X122912560Y-90816000D02*
X122956838Y-91051317D01*
X123095910Y-91267441D01*
X123308110Y-91412431D01*
X123560000Y-91463440D01*
X125360000Y-91463440D01*
X125595317Y-91419162D01*
X125811441Y-91280090D01*
X125956431Y-91067890D01*
X125960567Y-91047466D01*
X126129357Y-91216551D01*
X126693330Y-91450733D01*
X127303991Y-91451265D01*
X127868371Y-91218068D01*
X128286169Y-90801000D01*
X134388421Y-90801000D01*
X134280861Y-90908560D01*
X133085000Y-90908560D01*
X132849683Y-90952838D01*
X132633559Y-91091910D01*
X132488569Y-91304110D01*
X132437560Y-91556000D01*
X132437560Y-91571000D01*
X130810005Y-91571000D01*
X130810000Y-91570999D01*
X130527516Y-91627190D01*
X130471325Y-91638367D01*
X130184210Y-91830210D01*
X130184208Y-91830213D01*
X126374210Y-95640210D01*
X126182367Y-95927325D01*
X126182367Y-95927326D01*
X126170187Y-95988560D01*
X126100000Y-95988560D01*
X125864683Y-96032838D01*
X125648559Y-96171910D01*
X125503569Y-96384110D01*
X125452560Y-96636000D01*
X125452560Y-98085861D01*
X123072210Y-100466210D01*
X122880367Y-100753325D01*
X122880367Y-100753326D01*
X122817662Y-101068560D01*
X122798000Y-101068560D01*
X122562683Y-101112838D01*
X122346559Y-101251910D01*
X122201569Y-101464110D01*
X122150560Y-101716000D01*
X122150560Y-102911860D01*
X121294210Y-103768210D01*
X121102367Y-104055325D01*
X121102367Y-104055326D01*
X121034999Y-104394000D01*
X121035000Y-104394005D01*
X121035000Y-106148560D01*
X121020000Y-106148560D01*
X120784683Y-106192838D01*
X120568559Y-106331910D01*
X120423569Y-106544110D01*
X120372560Y-106796000D01*
X120372560Y-107229861D01*
X119249000Y-108353420D01*
X119249000Y-106538580D01*
X120004477Y-105783103D01*
X120112775Y-105783197D01*
X120530086Y-105610767D01*
X120849645Y-105291765D01*
X121022803Y-104874756D01*
X121023197Y-104423225D01*
X120850767Y-104005914D01*
X120531765Y-103686355D01*
X120114756Y-103513197D01*
X119663225Y-103512803D01*
X119245914Y-103685233D01*
X118926355Y-104004235D01*
X118900800Y-104065779D01*
X118901316Y-103473060D01*
X118668119Y-102908680D01*
X118236694Y-102476500D01*
X117672721Y-102242318D01*
X117434999Y-102242111D01*
X117435686Y-102241106D01*
X117490170Y-101989944D01*
X117442646Y-101737373D01*
X117300601Y-101523191D01*
X116455000Y-100677590D01*
X116455000Y-99934580D01*
X118576139Y-97813440D01*
X120280000Y-97813440D01*
X120515317Y-97769162D01*
X120731441Y-97630090D01*
X120876431Y-97417890D01*
X120880567Y-97397466D01*
X121049357Y-97566551D01*
X121613330Y-97800733D01*
X122223991Y-97801265D01*
X122313022Y-97764478D01*
X122312760Y-98064285D01*
X122523169Y-98573515D01*
X122912436Y-98963461D01*
X123421298Y-99174759D01*
X123972285Y-99175240D01*
X124481515Y-98964831D01*
X124871461Y-98575564D01*
X125082759Y-98066702D01*
X125083240Y-97515715D01*
X124872831Y-97006485D01*
X124483564Y-96616539D01*
X123974702Y-96405241D01*
X123454879Y-96404787D01*
X123455265Y-95962009D01*
X123222068Y-95397629D01*
X122790643Y-94965449D01*
X122226670Y-94731267D01*
X121616009Y-94730735D01*
X121051629Y-94963932D01*
X120883387Y-95131880D01*
X120883162Y-95130683D01*
X120744090Y-94914559D01*
X120531890Y-94769569D01*
X120280000Y-94718560D01*
X120265000Y-94718560D01*
X120265000Y-93330580D01*
X122794579Y-90801000D01*
X122912560Y-90801000D01*
X122912560Y-90816000D01*
G36*
X139422560Y-100976000D02*
X139466838Y-101211317D01*
X139605910Y-101427441D01*
X139818110Y-101572431D01*
X139838534Y-101576567D01*
X139669449Y-101745357D01*
X139435267Y-102309330D01*
X139434735Y-102919991D01*
X139667932Y-103484371D01*
X139946074Y-103763000D01*
X138684000Y-103763000D01*
X138345325Y-103830367D01*
X138058210Y-104022210D01*
X137866367Y-104309325D01*
X137799000Y-104648000D01*
X137799000Y-105353392D01*
X137697911Y-105454481D01*
X137629923Y-105213540D01*
X137110829Y-105028799D01*
X136907569Y-105039131D01*
X137190551Y-104756643D01*
X137424733Y-104192670D01*
X137425265Y-103582009D01*
X137192068Y-103017629D01*
X137024120Y-102849387D01*
X137025317Y-102849162D01*
X137241441Y-102710090D01*
X137386431Y-102497890D01*
X137437440Y-102246000D01*
X137437440Y-101050139D01*
X137526579Y-100961000D01*
X139422560Y-100961000D01*
X139422560Y-100976000D01*
X139422560Y-100976000D01*
G37*
X139422560Y-100976000D02*
X139466838Y-101211317D01*
X139605910Y-101427441D01*
X139818110Y-101572431D01*
X139838534Y-101576567D01*
X139669449Y-101745357D01*
X139435267Y-102309330D01*
X139434735Y-102919991D01*
X139667932Y-103484371D01*
X139946074Y-103763000D01*
X138684000Y-103763000D01*
X138345325Y-103830367D01*
X138058210Y-104022210D01*
X137866367Y-104309325D01*
X137799000Y-104648000D01*
X137799000Y-105353392D01*
X137697911Y-105454481D01*
X137629923Y-105213540D01*
X137110829Y-105028799D01*
X136907569Y-105039131D01*
X137190551Y-104756643D01*
X137424733Y-104192670D01*
X137425265Y-103582009D01*
X137192068Y-103017629D01*
X137024120Y-102849387D01*
X137025317Y-102849162D01*
X137241441Y-102710090D01*
X137386431Y-102497890D01*
X137437440Y-102246000D01*
X137437440Y-101050139D01*
X137526579Y-100961000D01*
X139422560Y-100961000D01*
X139422560Y-100976000D01*
G36*
X144502560Y-100976000D02*
X144546838Y-101211317D01*
X144685910Y-101427441D01*
X144898110Y-101572431D01*
X144918534Y-101576567D01*
X144749449Y-101745357D01*
X144515267Y-102309330D01*
X144514735Y-102919991D01*
X144747932Y-103484371D01*
X145026074Y-103763000D01*
X141993710Y-103763000D01*
X142270551Y-103486643D01*
X142504733Y-102922670D01*
X142505265Y-102312009D01*
X142272068Y-101747629D01*
X142104120Y-101579387D01*
X142105317Y-101579162D01*
X142321441Y-101440090D01*
X142466431Y-101227890D01*
X142517440Y-100976000D01*
X142517440Y-99183000D01*
X144502560Y-99183000D01*
X144502560Y-100976000D01*
X144502560Y-100976000D01*
G37*
X144502560Y-100976000D02*
X144546838Y-101211317D01*
X144685910Y-101427441D01*
X144898110Y-101572431D01*
X144918534Y-101576567D01*
X144749449Y-101745357D01*
X144515267Y-102309330D01*
X144514735Y-102919991D01*
X144747932Y-103484371D01*
X145026074Y-103763000D01*
X141993710Y-103763000D01*
X142270551Y-103486643D01*
X142504733Y-102922670D01*
X142505265Y-102312009D01*
X142272068Y-101747629D01*
X142104120Y-101579387D01*
X142105317Y-101579162D01*
X142321441Y-101440090D01*
X142466431Y-101227890D01*
X142517440Y-100976000D01*
X142517440Y-99183000D01*
X144502560Y-99183000D01*
X144502560Y-100976000D01*
G36*
X157246838Y-98671317D02*
X157385910Y-98887441D01*
X157598110Y-99032431D01*
X157850000Y-99083440D01*
X159045860Y-99083440D01*
X161167000Y-101204579D01*
X161167000Y-101312734D01*
X161063569Y-101464110D01*
X161059433Y-101484534D01*
X160890643Y-101315449D01*
X160326670Y-101081267D01*
X159716009Y-101080735D01*
X159151629Y-101313932D01*
X158925372Y-101539793D01*
X156456795Y-99071215D01*
X156513991Y-99071265D01*
X157078371Y-98838068D01*
X157246613Y-98670120D01*
X157246838Y-98671317D01*
X157246838Y-98671317D01*
G37*
X157246838Y-98671317D02*
X157385910Y-98887441D01*
X157598110Y-99032431D01*
X157850000Y-99083440D01*
X159045860Y-99083440D01*
X161167000Y-101204579D01*
X161167000Y-101312734D01*
X161063569Y-101464110D01*
X161059433Y-101484534D01*
X160890643Y-101315449D01*
X160326670Y-101081267D01*
X159716009Y-101080735D01*
X159151629Y-101313932D01*
X158925372Y-101539793D01*
X156456795Y-99071215D01*
X156513991Y-99071265D01*
X157078371Y-98838068D01*
X157246613Y-98670120D01*
X157246838Y-98671317D01*
G36*
X129262560Y-87006000D02*
X129306838Y-87241317D01*
X129445910Y-87457441D01*
X129658110Y-87602431D01*
X129910000Y-87653440D01*
X131710000Y-87653440D01*
X131945317Y-87609162D01*
X132161441Y-87470090D01*
X132306431Y-87257890D01*
X132310567Y-87237466D01*
X132479357Y-87406551D01*
X133043330Y-87640733D01*
X133653991Y-87641265D01*
X134218371Y-87408068D01*
X134636169Y-86991000D01*
X152384532Y-86991000D01*
X152799357Y-87406551D01*
X153363330Y-87640733D01*
X153973991Y-87641265D01*
X154538371Y-87408068D01*
X154706613Y-87240120D01*
X154706838Y-87241317D01*
X154845910Y-87457441D01*
X155058110Y-87602431D01*
X155310000Y-87653440D01*
X157110000Y-87653440D01*
X157345317Y-87609162D01*
X157561441Y-87470090D01*
X157706431Y-87257890D01*
X157757440Y-87006000D01*
X157757440Y-86991000D01*
X159399420Y-86991000D01*
X161107799Y-88699378D01*
X161063569Y-88764110D01*
X161059433Y-88784534D01*
X160890643Y-88615449D01*
X160326670Y-88381267D01*
X159716009Y-88380735D01*
X159151629Y-88613932D01*
X158733831Y-89031000D01*
X149718579Y-89031000D01*
X149342790Y-88655210D01*
X149207120Y-88564559D01*
X149055675Y-88463367D01*
X148999484Y-88452190D01*
X148717000Y-88395999D01*
X148716995Y-88396000D01*
X137160005Y-88396000D01*
X137160000Y-88395999D01*
X136821326Y-88463366D01*
X136821324Y-88463367D01*
X136821325Y-88463367D01*
X136534210Y-88655210D01*
X136534208Y-88655213D01*
X136158420Y-89031000D01*
X128285468Y-89031000D01*
X127870643Y-88615449D01*
X127306670Y-88381267D01*
X126696009Y-88380735D01*
X126131629Y-88613932D01*
X125963387Y-88781880D01*
X125963162Y-88780683D01*
X125824090Y-88564559D01*
X125654736Y-88448844D01*
X127112579Y-86991000D01*
X129262560Y-86991000D01*
X129262560Y-87006000D01*
X129262560Y-87006000D01*
G37*
X129262560Y-87006000D02*
X129306838Y-87241317D01*
X129445910Y-87457441D01*
X129658110Y-87602431D01*
X129910000Y-87653440D01*
X131710000Y-87653440D01*
X131945317Y-87609162D01*
X132161441Y-87470090D01*
X132306431Y-87257890D01*
X132310567Y-87237466D01*
X132479357Y-87406551D01*
X133043330Y-87640733D01*
X133653991Y-87641265D01*
X134218371Y-87408068D01*
X134636169Y-86991000D01*
X152384532Y-86991000D01*
X152799357Y-87406551D01*
X153363330Y-87640733D01*
X153973991Y-87641265D01*
X154538371Y-87408068D01*
X154706613Y-87240120D01*
X154706838Y-87241317D01*
X154845910Y-87457441D01*
X155058110Y-87602431D01*
X155310000Y-87653440D01*
X157110000Y-87653440D01*
X157345317Y-87609162D01*
X157561441Y-87470090D01*
X157706431Y-87257890D01*
X157757440Y-87006000D01*
X157757440Y-86991000D01*
X159399420Y-86991000D01*
X161107799Y-88699378D01*
X161063569Y-88764110D01*
X161059433Y-88784534D01*
X160890643Y-88615449D01*
X160326670Y-88381267D01*
X159716009Y-88380735D01*
X159151629Y-88613932D01*
X158733831Y-89031000D01*
X149718579Y-89031000D01*
X149342790Y-88655210D01*
X149207120Y-88564559D01*
X149055675Y-88463367D01*
X148999484Y-88452190D01*
X148717000Y-88395999D01*
X148716995Y-88396000D01*
X137160005Y-88396000D01*
X137160000Y-88395999D01*
X136821326Y-88463366D01*
X136821324Y-88463367D01*
X136821325Y-88463367D01*
X136534210Y-88655210D01*
X136534208Y-88655213D01*
X136158420Y-89031000D01*
X128285468Y-89031000D01*
X127870643Y-88615449D01*
X127306670Y-88381267D01*
X126696009Y-88380735D01*
X126131629Y-88613932D01*
X125963387Y-88781880D01*
X125963162Y-88780683D01*
X125824090Y-88564559D01*
X125654736Y-88448844D01*
X127112579Y-86991000D01*
X129262560Y-86991000D01*
X129262560Y-87006000D01*
G36*
X136882560Y-84466000D02*
X136926838Y-84701317D01*
X137065910Y-84917441D01*
X137278110Y-85062431D01*
X137530000Y-85113440D01*
X139330000Y-85113440D01*
X139565317Y-85069162D01*
X139781441Y-84930090D01*
X139926431Y-84717890D01*
X139930567Y-84697466D01*
X140099357Y-84866551D01*
X140663330Y-85100733D01*
X141273991Y-85101265D01*
X141838371Y-84868068D01*
X142256169Y-84451000D01*
X144764532Y-84451000D01*
X145179357Y-84866551D01*
X145743330Y-85100733D01*
X146353991Y-85101265D01*
X146918371Y-84868068D01*
X147086613Y-84700120D01*
X147086838Y-84701317D01*
X147225910Y-84917441D01*
X147438110Y-85062431D01*
X147690000Y-85113440D01*
X149490000Y-85113440D01*
X149725317Y-85069162D01*
X149941441Y-84930090D01*
X150086431Y-84717890D01*
X150137440Y-84466000D01*
X150137440Y-84451000D01*
X153303420Y-84451000D01*
X153423205Y-84570785D01*
X153366009Y-84570735D01*
X152801629Y-84803932D01*
X152383831Y-85221000D01*
X134635468Y-85221000D01*
X134220643Y-84805449D01*
X133656670Y-84571267D01*
X133046009Y-84570735D01*
X132481629Y-84803932D01*
X132313387Y-84971880D01*
X132313162Y-84970683D01*
X132261375Y-84890204D01*
X132700579Y-84451000D01*
X136882560Y-84451000D01*
X136882560Y-84466000D01*
X136882560Y-84466000D01*
G37*
X136882560Y-84466000D02*
X136926838Y-84701317D01*
X137065910Y-84917441D01*
X137278110Y-85062431D01*
X137530000Y-85113440D01*
X139330000Y-85113440D01*
X139565317Y-85069162D01*
X139781441Y-84930090D01*
X139926431Y-84717890D01*
X139930567Y-84697466D01*
X140099357Y-84866551D01*
X140663330Y-85100733D01*
X141273991Y-85101265D01*
X141838371Y-84868068D01*
X142256169Y-84451000D01*
X144764532Y-84451000D01*
X145179357Y-84866551D01*
X145743330Y-85100733D01*
X146353991Y-85101265D01*
X146918371Y-84868068D01*
X147086613Y-84700120D01*
X147086838Y-84701317D01*
X147225910Y-84917441D01*
X147438110Y-85062431D01*
X147690000Y-85113440D01*
X149490000Y-85113440D01*
X149725317Y-85069162D01*
X149941441Y-84930090D01*
X150086431Y-84717890D01*
X150137440Y-84466000D01*
X150137440Y-84451000D01*
X153303420Y-84451000D01*
X153423205Y-84570785D01*
X153366009Y-84570735D01*
X152801629Y-84803932D01*
X152383831Y-85221000D01*
X134635468Y-85221000D01*
X134220643Y-84805449D01*
X133656670Y-84571267D01*
X133046009Y-84570735D01*
X132481629Y-84803932D01*
X132313387Y-84971880D01*
X132313162Y-84970683D01*
X132261375Y-84890204D01*
X132700579Y-84451000D01*
X136882560Y-84451000D01*
X136882560Y-84466000D01*
M02*
