G04 #@! TF.FileFunction,Soldermask,Bot*
%FSLAX46Y46*%
G04 Gerber Fmt 4.6, Leading zero omitted, Abs format (unit mm)*
G04 Created by KiCad (PCBNEW 4.0.7) date 04/21/18 22:11:58*
%MOMM*%
%LPD*%
G01*
G04 APERTURE LIST*
%ADD10C,0.100000*%
%ADD11C,2.200000*%
%ADD12R,2.400000X3.000000*%
%ADD13O,2.400000X3.000000*%
%ADD14R,1.300000X0.900000*%
%ADD15R,3.000000X2.400000*%
%ADD16O,3.000000X2.400000*%
%ADD17R,1.650000X1.900000*%
%ADD18R,2.200000X2.200000*%
%ADD19R,1.200000X1.300000*%
%ADD20R,2.150000X1.900000*%
%ADD21O,2.400000X1.900000*%
%ADD22C,1.900000*%
%ADD23C,1.900000*%
G04 APERTURE END LIST*
D10*
G36*
X134270635Y-106426000D02*
X132715000Y-107981635D01*
X131159365Y-106426000D01*
X132715000Y-104870365D01*
X134270635Y-106426000D01*
X134270635Y-106426000D01*
G37*
D11*
X130918949Y-104629949D03*
D12*
X145986500Y-106807000D03*
D13*
X143446500Y-106807000D03*
X140906500Y-106807000D03*
D14*
X152654000Y-119392000D03*
X152654000Y-120892000D03*
D10*
G36*
X143568614Y-125974695D02*
X144770695Y-124772614D01*
X146114198Y-126116117D01*
X144912117Y-127318198D01*
X143568614Y-125974695D01*
X143568614Y-125974695D01*
G37*
G36*
X145477802Y-127883883D02*
X146679883Y-126681802D01*
X148023386Y-128025305D01*
X146821305Y-129227386D01*
X145477802Y-127883883D01*
X145477802Y-127883883D01*
G37*
D15*
X143256000Y-138557000D03*
D16*
X143256000Y-136017000D03*
D17*
X135636000Y-117074000D03*
X135636000Y-114574000D03*
D10*
G36*
X117125635Y-123571000D02*
X115570000Y-125126635D01*
X114014365Y-123571000D01*
X115570000Y-122015365D01*
X117125635Y-123571000D01*
X117125635Y-123571000D01*
G37*
D11*
X113773949Y-121774949D03*
D18*
X137160000Y-72136000D03*
D11*
X139700000Y-72136000D03*
D18*
X176530000Y-106426000D03*
D11*
X176530000Y-103886000D03*
D18*
X168910000Y-117856000D03*
D11*
X171450000Y-117856000D03*
D10*
G36*
X165774684Y-123403781D02*
X167807219Y-124245684D01*
X166965316Y-126278219D01*
X164932781Y-125436316D01*
X165774684Y-123403781D01*
X165774684Y-123403781D01*
G37*
D11*
X165397984Y-127187654D03*
D10*
G36*
X154305000Y-107981635D02*
X152749365Y-106426000D01*
X154305000Y-104870365D01*
X155860635Y-106426000D01*
X154305000Y-107981635D01*
X154305000Y-107981635D01*
G37*
D11*
X156101051Y-104629949D03*
D18*
X158750000Y-97536000D03*
D11*
X156210000Y-97536000D03*
D10*
G36*
X170747144Y-125760154D02*
X169260846Y-124138144D01*
X170882856Y-122651846D01*
X172369154Y-124273856D01*
X170747144Y-125760154D01*
X170747144Y-125760154D01*
G37*
D11*
X172687684Y-122490001D03*
D18*
X175260000Y-115316000D03*
D11*
X175260000Y-112776000D03*
D18*
X175260000Y-96266000D03*
D11*
X175260000Y-93726000D03*
D10*
G36*
X173640635Y-88011000D02*
X172085000Y-89566635D01*
X170529365Y-88011000D01*
X172085000Y-86455365D01*
X173640635Y-88011000D01*
X173640635Y-88011000D01*
G37*
D11*
X170288949Y-86214949D03*
D10*
G36*
X167290635Y-80391000D02*
X165735000Y-81946635D01*
X164179365Y-80391000D01*
X165735000Y-78835365D01*
X167290635Y-80391000D01*
X167290635Y-80391000D01*
G37*
D11*
X163938949Y-78594949D03*
D10*
G36*
X159797635Y-75692000D02*
X158242000Y-77247635D01*
X156686365Y-75692000D01*
X158242000Y-74136365D01*
X159797635Y-75692000D01*
X159797635Y-75692000D01*
G37*
D11*
X156445949Y-73895949D03*
D18*
X149860000Y-72136000D03*
D11*
X147320000Y-72136000D03*
D18*
X171450000Y-108966000D03*
D11*
X171450000Y-111506000D03*
D10*
G36*
X171450000Y-100425365D02*
X173005635Y-101981000D01*
X171450000Y-103536635D01*
X169894365Y-101981000D01*
X171450000Y-100425365D01*
X171450000Y-100425365D01*
G37*
D11*
X169653949Y-103777051D03*
D18*
X167640000Y-96266000D03*
D11*
X165100000Y-96266000D03*
D18*
X156210000Y-86106000D03*
D11*
X153670000Y-86106000D03*
D10*
G36*
X159385000Y-129571635D02*
X157829365Y-128016000D01*
X159385000Y-126460365D01*
X160940635Y-128016000D01*
X159385000Y-129571635D01*
X159385000Y-129571635D01*
G37*
D11*
X161181051Y-126219949D03*
D18*
X163830000Y-121031000D03*
D11*
X163830000Y-123571000D03*
D10*
G36*
X165735000Y-112490365D02*
X167290635Y-114046000D01*
X165735000Y-115601635D01*
X164179365Y-114046000D01*
X165735000Y-112490365D01*
X165735000Y-112490365D01*
G37*
D11*
X163938949Y-115842051D03*
D18*
X164465000Y-107696000D03*
D11*
X164465000Y-110236000D03*
D18*
X162560000Y-102616000D03*
D11*
X160020000Y-102616000D03*
D18*
X152400000Y-92456000D03*
D11*
X152400000Y-94996000D03*
D18*
X146685000Y-91186000D03*
D11*
X146685000Y-93726000D03*
D18*
X153670000Y-129286000D03*
D11*
X153670000Y-126746000D03*
D18*
X154940000Y-124206000D03*
D11*
X157480000Y-124206000D03*
D18*
X158750000Y-119126000D03*
D11*
X156210000Y-119126000D03*
D10*
G36*
X158750000Y-111220365D02*
X160305635Y-112776000D01*
X158750000Y-114331635D01*
X157194365Y-112776000D01*
X158750000Y-111220365D01*
X158750000Y-111220365D01*
G37*
D11*
X156953949Y-114572051D03*
D10*
G36*
X158242000Y-106902365D02*
X159797635Y-108458000D01*
X158242000Y-110013635D01*
X156686365Y-108458000D01*
X158242000Y-106902365D01*
X158242000Y-106902365D01*
G37*
D11*
X156445949Y-110254051D03*
D18*
X151130000Y-101346000D03*
D11*
X151130000Y-103886000D03*
D18*
X146050000Y-100076000D03*
D11*
X146050000Y-102616000D03*
D18*
X133350000Y-129286000D03*
D11*
X133350000Y-126746000D03*
D18*
X132080000Y-124206000D03*
D11*
X129540000Y-124206000D03*
D18*
X128270000Y-119126000D03*
D11*
X130810000Y-119126000D03*
D10*
G36*
X127086781Y-109561316D02*
X127928684Y-107528781D01*
X129961219Y-108370684D01*
X129119316Y-110403219D01*
X127086781Y-109561316D01*
X127086781Y-109561316D01*
G37*
D11*
X130870654Y-109938016D03*
D18*
X135890000Y-101346000D03*
D11*
X135890000Y-103886000D03*
D18*
X140970000Y-100076000D03*
D11*
X140970000Y-102616000D03*
D10*
G36*
X129190635Y-128016000D02*
X127635000Y-129571635D01*
X126079365Y-128016000D01*
X127635000Y-126460365D01*
X129190635Y-128016000D01*
X129190635Y-128016000D01*
G37*
D11*
X125838949Y-126219949D03*
D18*
X123190000Y-121031000D03*
D11*
X123190000Y-123571000D03*
D10*
G36*
X119094365Y-114046000D02*
X120650000Y-112490365D01*
X122205635Y-114046000D01*
X120650000Y-115601635D01*
X119094365Y-114046000D01*
X119094365Y-114046000D01*
G37*
D11*
X122446051Y-115842051D03*
D18*
X121920000Y-107696000D03*
D11*
X121920000Y-110236000D03*
D18*
X123698000Y-102616000D03*
D11*
X126238000Y-102616000D03*
D18*
X127000000Y-97536000D03*
D11*
X129540000Y-97536000D03*
D18*
X133985000Y-92456000D03*
D11*
X133985000Y-94996000D03*
D10*
G36*
X119337991Y-124005158D02*
X121485842Y-123528991D01*
X121962009Y-125676842D01*
X119814158Y-126153009D01*
X119337991Y-124005158D01*
X119337991Y-124005158D01*
G37*
D11*
X121199757Y-127320792D03*
D18*
X118110000Y-117856000D03*
D11*
X115570000Y-117856000D03*
D18*
X115570000Y-108966000D03*
D11*
X115570000Y-111506000D03*
D10*
G36*
X114014365Y-101981000D02*
X115570000Y-100425365D01*
X117125635Y-101981000D01*
X115570000Y-103536635D01*
X114014365Y-101981000D01*
X114014365Y-101981000D01*
G37*
D11*
X117366051Y-103777051D03*
D18*
X124460000Y-89916000D03*
D11*
X127000000Y-89916000D03*
D18*
X130810000Y-86106000D03*
D11*
X133350000Y-86106000D03*
D18*
X138430000Y-83566000D03*
D11*
X140970000Y-83566000D03*
D18*
X111760000Y-115316000D03*
D11*
X111760000Y-112776000D03*
D18*
X111760000Y-96266000D03*
D11*
X111760000Y-93726000D03*
D10*
G36*
X115570000Y-88931635D02*
X114014365Y-87376000D01*
X115570000Y-85820365D01*
X117125635Y-87376000D01*
X115570000Y-88931635D01*
X115570000Y-88931635D01*
G37*
D11*
X117366051Y-85579949D03*
D10*
G36*
X121285000Y-81946635D02*
X119729365Y-80391000D01*
X121285000Y-78835365D01*
X122840635Y-80391000D01*
X121285000Y-81946635D01*
X121285000Y-81946635D01*
G37*
D11*
X123081051Y-78594949D03*
D10*
G36*
X128778000Y-77247635D02*
X127222365Y-75692000D01*
X128778000Y-74136365D01*
X130333635Y-75692000D01*
X128778000Y-77247635D01*
X128778000Y-77247635D01*
G37*
D11*
X130574051Y-73895949D03*
D18*
X140335000Y-91186000D03*
D11*
X140335000Y-93726000D03*
D18*
X110490000Y-106426000D03*
D11*
X110490000Y-103886000D03*
D18*
X148590000Y-83566000D03*
D11*
X146050000Y-83566000D03*
D18*
X162560000Y-89916000D03*
D11*
X160020000Y-89916000D03*
D18*
X119380000Y-96266000D03*
D11*
X121920000Y-96266000D03*
D10*
G36*
X126714365Y-112776000D02*
X128270000Y-111220365D01*
X129825635Y-112776000D01*
X128270000Y-114331635D01*
X126714365Y-112776000D01*
X126714365Y-112776000D01*
G37*
D11*
X130066051Y-114572051D03*
D10*
G36*
X134295290Y-111228741D02*
X133446762Y-110380213D01*
X134366000Y-109460975D01*
X135214528Y-110309503D01*
X134295290Y-111228741D01*
X134295290Y-111228741D01*
G37*
G36*
X132951787Y-109885238D02*
X132103259Y-109036710D01*
X133022497Y-108117472D01*
X133871025Y-108966000D01*
X132951787Y-109885238D01*
X132951787Y-109885238D01*
G37*
G36*
X135037752Y-109142776D02*
X134189224Y-108294248D01*
X135108462Y-107375010D01*
X135956990Y-108223538D01*
X135037752Y-109142776D01*
X135037752Y-109142776D01*
G37*
D19*
X148148000Y-135144000D03*
X150048000Y-135144000D03*
X149098000Y-137144000D03*
D20*
X152717500Y-116840000D03*
D21*
X152717500Y-114808000D03*
X152717500Y-112776000D03*
D10*
G36*
X140264681Y-122996402D02*
X138744402Y-124516681D01*
X137400899Y-123173178D01*
X138921178Y-121652899D01*
X140264681Y-122996402D01*
X140264681Y-122996402D01*
G37*
D22*
X137219172Y-121824726D02*
X137572726Y-121471172D01*
X135782331Y-120387885D02*
X136135885Y-120034331D01*
D23*
X147320000Y-138684000D03*
X136906000Y-106426000D03*
X142494000Y-128524000D03*
X123698000Y-97790000D03*
M02*
