M48
;DRILL file {KiCad 4.0.7} date 04/21/18 22:05:05
;FORMAT={-:-/ absolute / inch / decimal}
FMAT,2
INCH,TZ
T1C0.024
T2C0.031
T3C0.035
T4C0.039
T5C0.047
%
G90
G05
M72
T1
X4.41Y-4.27
X4.475Y-3.965
X4.54Y-3.835
X4.615Y-3.745
X4.65Y-3.57
X4.66Y-4.47
X4.72Y-4.12
X4.76Y-4.58
X4.765Y-3.49
X4.82Y-3.425
X4.86Y-4.15
X4.92Y-3.335
X4.92Y-4.71
X5.04Y-4.06
X5.065Y-3.2
X5.09Y-3.6
X5.13Y-4.76
X5.21Y-5.41
X5.225Y-3.145
X5.25Y-4.38
X5.29Y-5.41
X5.3Y-5.32
X5.33Y-4.8
X5.37Y-4.32
X5.37Y-5.06
X5.42Y-4.05
X5.44Y-5.02
X5.45Y-3.46
X5.465Y-3.075
X5.49Y-5.45
X5.5Y-4.97
X5.53Y-5.32
X5.56Y-4.59
X5.61Y-4.99
X5.63Y-4.52
X5.64Y-3.085
X5.64Y-4.38
X5.65Y-3.34
X5.65Y-4.07
X5.66Y-4.7
X5.67Y-5.03
X5.7Y-3.82
X5.72Y-4.34
X5.74Y-4.61
X5.74Y-4.69
X5.8Y-4.8
X5.81Y-4.91
X5.825Y-3.085
X5.87Y-5.27
X5.89Y-3.81
X5.95Y-3.1
X6.Y-4.91
X6.Y-5.36
X6.06Y-3.91
X6.115Y-3.15
X6.13Y-5.23
X6.15Y-4.58
X6.16Y-5.12
X6.22Y-4.82
X6.22Y-5.17
X6.26Y-3.94
X6.355Y-3.325
X6.36Y-3.77
X6.37Y-4.57
X6.37Y-5.16
X6.38Y-4.35
X6.4Y-4.66
X6.47Y-3.93
X6.49Y-3.44
X6.625Y-3.57
X6.695Y-3.805
X6.805Y-3.93
T2
X4.87Y-3.85
X5.39Y-4.19
X5.61Y-5.06
X5.8Y-5.46
T3
X4.35Y-4.09
X4.35Y-4.19
X4.4Y-3.69
X4.4Y-3.79
X4.4Y-4.44
X4.4Y-4.54
X4.4793Y-4.7943
X4.55Y-3.44
X4.55Y-4.015
X4.55Y-4.29
X4.55Y-4.39
X4.55Y-4.64
X4.55Y-4.865
X4.6207Y-3.3693
X4.6207Y-4.0857
X4.65Y-4.64
X4.7Y-3.79
X4.75Y-4.49
X4.75Y-4.915
X4.7716Y-5.0126
X4.775Y-3.165
X4.8Y-3.79
X4.8Y-4.24
X4.8Y-4.34
X4.8207Y-4.5607
X4.8457Y-3.0943
X4.85Y-4.765
X4.85Y-4.865
X4.87Y-4.04
X4.9Y-3.54
X4.9543Y-4.9693
X4.97Y-4.04
X5.Y-3.54
X5.Y-3.84
X5.025Y-5.04
X5.05Y-4.44
X5.05Y-4.69
X5.06Y-4.29
X5.07Y-2.98
X5.1Y-3.84
X5.1Y-4.89
X5.1207Y-4.5107
X5.1407Y-2.9093
X5.15Y-3.39
X5.15Y-4.69
X5.1524Y-4.3283
X5.1543Y-4.1193
X5.2Y-4.89
X5.225Y-4.19
X5.25Y-3.39
X5.25Y-4.99
X5.25Y-5.09
X5.275Y-3.64
X5.275Y-3.74
X5.35Y-3.99
X5.35Y-4.09
X5.4Y-2.84
X5.45Y-3.29
X5.5Y-2.84
X5.525Y-3.59
X5.525Y-3.69
X5.55Y-3.29
X5.55Y-3.94
X5.55Y-4.04
X5.75Y-3.29
X5.75Y-3.94
X5.75Y-4.04
X5.775Y-3.59
X5.775Y-3.69
X5.8Y-2.84
X5.85Y-3.29
X5.9Y-2.84
X5.95Y-3.99
X5.95Y-4.09
X6.Y-3.64
X6.Y-3.74
X6.05Y-3.39
X6.05Y-4.99
X6.05Y-5.09
X6.075Y-4.19
X6.1Y-4.89
X6.1457Y-4.1193
X6.15Y-3.39
X6.15Y-3.84
X6.15Y-4.69
X6.1593Y-2.9093
X6.1593Y-4.3407
X6.1793Y-4.5107
X6.2Y-4.89
X6.23Y-2.98
X6.23Y-4.27
X6.25Y-3.84
X6.25Y-4.44
X6.25Y-4.69
X6.275Y-5.04
X6.3Y-3.54
X6.3Y-4.04
X6.3457Y-4.9693
X6.4Y-3.54
X6.4Y-4.04
X6.45Y-4.765
X6.45Y-4.865
X6.4543Y-3.0943
X6.4543Y-4.5607
X6.475Y-4.24
X6.475Y-4.34
X6.5Y-3.79
X6.5117Y-5.0074
X6.525Y-3.165
X6.525Y-4.49
X6.55Y-4.915
X6.6Y-3.79
X6.65Y-4.64
X6.6793Y-4.0857
X6.7043Y-3.3943
X6.725Y-4.89
X6.75Y-4.015
X6.75Y-4.29
X6.75Y-4.39
X6.75Y-4.64
X6.775Y-3.465
X6.7987Y-4.8224
X6.9Y-3.69
X6.9Y-3.79
X6.9Y-4.44
X6.9Y-4.54
X6.95Y-4.09
X6.95Y-4.19
T4
X5.3527Y-4.7327
X5.4093Y-4.7893
X5.4659Y-4.8459
X6.0125Y-4.44
X6.0125Y-4.52
X6.0125Y-4.6
T5
X5.5475Y-4.205
X5.64Y-5.355
X5.64Y-5.455
X5.6475Y-4.205
X5.7475Y-4.205
T0
M30
