G04 #@! TF.FileFunction,Soldermask,Top*
%FSLAX46Y46*%
G04 Gerber Fmt 4.6, Leading zero omitted, Abs format (unit mm)*
G04 Created by KiCad (PCBNEW 4.0.7) date 04/21/18 22:11:58*
%MOMM*%
%LPD*%
G01*
G04 APERTURE LIST*
%ADD10C,0.100000*%
%ADD11C,2.200000*%
%ADD12R,1.900000X1.700000*%
%ADD13R,1.460000X1.050000*%
%ADD14R,0.950000X2.000000*%
%ADD15R,2.000000X0.950000*%
%ADD16R,2.400000X3.000000*%
%ADD17O,2.400000X3.000000*%
%ADD18R,3.000000X2.400000*%
%ADD19O,3.000000X2.400000*%
%ADD20R,1.700000X1.900000*%
%ADD21R,2.200000X2.200000*%
%ADD22R,1.700000X1.100000*%
%ADD23R,1.300000X1.200000*%
%ADD24R,1.200000X1.300000*%
%ADD25R,1.100000X1.700000*%
%ADD26R,2.430000X2.050000*%
%ADD27R,2.150000X1.900000*%
%ADD28O,2.400000X1.900000*%
%ADD29C,1.900000*%
%ADD30C,1.900000*%
G04 APERTURE END LIST*
D10*
G36*
X134270635Y-106426000D02*
X132715000Y-107981635D01*
X131159365Y-106426000D01*
X132715000Y-104870365D01*
X134270635Y-106426000D01*
X134270635Y-106426000D01*
G37*
D11*
X130918949Y-104629949D03*
D12*
X120824000Y-118618000D03*
X123524000Y-118618000D03*
D13*
X136568000Y-135194000D03*
X136568000Y-136144000D03*
X136568000Y-137094000D03*
X138768000Y-137094000D03*
X138768000Y-135194000D03*
D14*
X146310000Y-112971000D03*
X145510000Y-112971000D03*
X144710000Y-112971000D03*
X143910000Y-112971000D03*
X143110000Y-112971000D03*
X142310000Y-112971000D03*
X141510000Y-112971000D03*
X140710000Y-112971000D03*
D15*
X139260000Y-114421000D03*
X139260000Y-115221000D03*
X139260000Y-116021000D03*
X139260000Y-116821000D03*
X139260000Y-117621000D03*
X139260000Y-118421000D03*
X139260000Y-119221000D03*
X139260000Y-120021000D03*
D14*
X140710000Y-121471000D03*
X141510000Y-121471000D03*
X142310000Y-121471000D03*
X143110000Y-121471000D03*
X143910000Y-121471000D03*
X144710000Y-121471000D03*
X145510000Y-121471000D03*
X146310000Y-121471000D03*
D15*
X147760000Y-120021000D03*
X147760000Y-119221000D03*
X147760000Y-118421000D03*
X147760000Y-117621000D03*
X147760000Y-116821000D03*
X147760000Y-116021000D03*
X147760000Y-115221000D03*
X147760000Y-114421000D03*
D16*
X145986500Y-106807000D03*
D17*
X143446500Y-106807000D03*
X140906500Y-106807000D03*
D18*
X143256000Y-138557000D03*
D19*
X143256000Y-136017000D03*
D10*
G36*
X129223752Y-135048297D02*
X129855179Y-133523896D01*
X131610550Y-134250995D01*
X130979123Y-135775396D01*
X129223752Y-135048297D01*
X129223752Y-135048297D01*
G37*
G36*
X131533450Y-136005005D02*
X132164877Y-134480604D01*
X133920248Y-135207703D01*
X133288821Y-136732104D01*
X131533450Y-136005005D01*
X131533450Y-136005005D01*
G37*
D20*
X150622000Y-86026000D03*
X150622000Y-88726000D03*
X155956000Y-90090000D03*
X155956000Y-92790000D03*
D10*
G36*
X121216614Y-92192695D02*
X122418695Y-90990614D01*
X123762198Y-92334117D01*
X122560117Y-93536198D01*
X121216614Y-92192695D01*
X121216614Y-92192695D01*
G37*
G36*
X123125802Y-94101883D02*
X124327883Y-92899802D01*
X125671386Y-94243305D01*
X124469305Y-95445386D01*
X123125802Y-94101883D01*
X123125802Y-94101883D01*
G37*
D20*
X120396000Y-99742000D03*
X120396000Y-102442000D03*
D10*
G36*
X114612614Y-105654695D02*
X115814695Y-104452614D01*
X117158198Y-105796117D01*
X115956117Y-106998198D01*
X114612614Y-105654695D01*
X114612614Y-105654695D01*
G37*
G36*
X116521802Y-107563883D02*
X117723883Y-106361802D01*
X119067386Y-107705305D01*
X117865305Y-108907386D01*
X116521802Y-107563883D01*
X116521802Y-107563883D01*
G37*
D20*
X148336000Y-86026000D03*
X148336000Y-88726000D03*
D10*
G36*
X117125635Y-123571000D02*
X115570000Y-125126635D01*
X114014365Y-123571000D01*
X115570000Y-122015365D01*
X117125635Y-123571000D01*
X117125635Y-123571000D01*
G37*
D11*
X113773949Y-121774949D03*
D21*
X137160000Y-72136000D03*
D11*
X139700000Y-72136000D03*
D21*
X176530000Y-106426000D03*
D11*
X176530000Y-103886000D03*
D21*
X168910000Y-117856000D03*
D11*
X171450000Y-117856000D03*
D10*
G36*
X165774684Y-123403781D02*
X167807219Y-124245684D01*
X166965316Y-126278219D01*
X164932781Y-125436316D01*
X165774684Y-123403781D01*
X165774684Y-123403781D01*
G37*
D11*
X165397984Y-127187654D03*
D10*
G36*
X154305000Y-107981635D02*
X152749365Y-106426000D01*
X154305000Y-104870365D01*
X155860635Y-106426000D01*
X154305000Y-107981635D01*
X154305000Y-107981635D01*
G37*
D11*
X156101051Y-104629949D03*
D21*
X158750000Y-97536000D03*
D11*
X156210000Y-97536000D03*
D10*
G36*
X170747144Y-125760154D02*
X169260846Y-124138144D01*
X170882856Y-122651846D01*
X172369154Y-124273856D01*
X170747144Y-125760154D01*
X170747144Y-125760154D01*
G37*
D11*
X172687684Y-122490001D03*
D21*
X175260000Y-115316000D03*
D11*
X175260000Y-112776000D03*
D21*
X175260000Y-96266000D03*
D11*
X175260000Y-93726000D03*
D10*
G36*
X173640635Y-88011000D02*
X172085000Y-89566635D01*
X170529365Y-88011000D01*
X172085000Y-86455365D01*
X173640635Y-88011000D01*
X173640635Y-88011000D01*
G37*
D11*
X170288949Y-86214949D03*
D10*
G36*
X167290635Y-80391000D02*
X165735000Y-81946635D01*
X164179365Y-80391000D01*
X165735000Y-78835365D01*
X167290635Y-80391000D01*
X167290635Y-80391000D01*
G37*
D11*
X163938949Y-78594949D03*
D10*
G36*
X159797635Y-75692000D02*
X158242000Y-77247635D01*
X156686365Y-75692000D01*
X158242000Y-74136365D01*
X159797635Y-75692000D01*
X159797635Y-75692000D01*
G37*
D11*
X156445949Y-73895949D03*
D21*
X149860000Y-72136000D03*
D11*
X147320000Y-72136000D03*
D21*
X171450000Y-108966000D03*
D11*
X171450000Y-111506000D03*
D10*
G36*
X171450000Y-100425365D02*
X173005635Y-101981000D01*
X171450000Y-103536635D01*
X169894365Y-101981000D01*
X171450000Y-100425365D01*
X171450000Y-100425365D01*
G37*
D11*
X169653949Y-103777051D03*
D21*
X167640000Y-96266000D03*
D11*
X165100000Y-96266000D03*
D21*
X156210000Y-86106000D03*
D11*
X153670000Y-86106000D03*
D10*
G36*
X159385000Y-129571635D02*
X157829365Y-128016000D01*
X159385000Y-126460365D01*
X160940635Y-128016000D01*
X159385000Y-129571635D01*
X159385000Y-129571635D01*
G37*
D11*
X161181051Y-126219949D03*
D21*
X163830000Y-121031000D03*
D11*
X163830000Y-123571000D03*
D10*
G36*
X165735000Y-112490365D02*
X167290635Y-114046000D01*
X165735000Y-115601635D01*
X164179365Y-114046000D01*
X165735000Y-112490365D01*
X165735000Y-112490365D01*
G37*
D11*
X163938949Y-115842051D03*
D21*
X164465000Y-107696000D03*
D11*
X164465000Y-110236000D03*
D21*
X162560000Y-102616000D03*
D11*
X160020000Y-102616000D03*
D21*
X152400000Y-92456000D03*
D11*
X152400000Y-94996000D03*
D21*
X146685000Y-91186000D03*
D11*
X146685000Y-93726000D03*
D21*
X153670000Y-129286000D03*
D11*
X153670000Y-126746000D03*
D21*
X154940000Y-124206000D03*
D11*
X157480000Y-124206000D03*
D21*
X158750000Y-119126000D03*
D11*
X156210000Y-119126000D03*
D10*
G36*
X158750000Y-111220365D02*
X160305635Y-112776000D01*
X158750000Y-114331635D01*
X157194365Y-112776000D01*
X158750000Y-111220365D01*
X158750000Y-111220365D01*
G37*
D11*
X156953949Y-114572051D03*
D10*
G36*
X158242000Y-106902365D02*
X159797635Y-108458000D01*
X158242000Y-110013635D01*
X156686365Y-108458000D01*
X158242000Y-106902365D01*
X158242000Y-106902365D01*
G37*
D11*
X156445949Y-110254051D03*
D21*
X151130000Y-101346000D03*
D11*
X151130000Y-103886000D03*
D21*
X146050000Y-100076000D03*
D11*
X146050000Y-102616000D03*
D21*
X133350000Y-129286000D03*
D11*
X133350000Y-126746000D03*
D21*
X132080000Y-124206000D03*
D11*
X129540000Y-124206000D03*
D21*
X128270000Y-119126000D03*
D11*
X130810000Y-119126000D03*
D10*
G36*
X127086781Y-109561316D02*
X127928684Y-107528781D01*
X129961219Y-108370684D01*
X129119316Y-110403219D01*
X127086781Y-109561316D01*
X127086781Y-109561316D01*
G37*
D11*
X130870654Y-109938016D03*
D21*
X135890000Y-101346000D03*
D11*
X135890000Y-103886000D03*
D21*
X140970000Y-100076000D03*
D11*
X140970000Y-102616000D03*
D10*
G36*
X129190635Y-128016000D02*
X127635000Y-129571635D01*
X126079365Y-128016000D01*
X127635000Y-126460365D01*
X129190635Y-128016000D01*
X129190635Y-128016000D01*
G37*
D11*
X125838949Y-126219949D03*
D21*
X123190000Y-121031000D03*
D11*
X123190000Y-123571000D03*
D10*
G36*
X119094365Y-114046000D02*
X120650000Y-112490365D01*
X122205635Y-114046000D01*
X120650000Y-115601635D01*
X119094365Y-114046000D01*
X119094365Y-114046000D01*
G37*
D11*
X122446051Y-115842051D03*
D21*
X121920000Y-107696000D03*
D11*
X121920000Y-110236000D03*
D21*
X123698000Y-102616000D03*
D11*
X126238000Y-102616000D03*
D21*
X127000000Y-97536000D03*
D11*
X129540000Y-97536000D03*
D21*
X133985000Y-92456000D03*
D11*
X133985000Y-94996000D03*
D10*
G36*
X119337991Y-124005158D02*
X121485842Y-123528991D01*
X121962009Y-125676842D01*
X119814158Y-126153009D01*
X119337991Y-124005158D01*
X119337991Y-124005158D01*
G37*
D11*
X121199757Y-127320792D03*
D21*
X118110000Y-117856000D03*
D11*
X115570000Y-117856000D03*
D21*
X115570000Y-108966000D03*
D11*
X115570000Y-111506000D03*
D10*
G36*
X114014365Y-101981000D02*
X115570000Y-100425365D01*
X117125635Y-101981000D01*
X115570000Y-103536635D01*
X114014365Y-101981000D01*
X114014365Y-101981000D01*
G37*
D11*
X117366051Y-103777051D03*
D21*
X124460000Y-89916000D03*
D11*
X127000000Y-89916000D03*
D21*
X130810000Y-86106000D03*
D11*
X133350000Y-86106000D03*
D21*
X138430000Y-83566000D03*
D11*
X140970000Y-83566000D03*
D21*
X111760000Y-115316000D03*
D11*
X111760000Y-112776000D03*
D21*
X111760000Y-96266000D03*
D11*
X111760000Y-93726000D03*
D10*
G36*
X115570000Y-88931635D02*
X114014365Y-87376000D01*
X115570000Y-85820365D01*
X117125635Y-87376000D01*
X115570000Y-88931635D01*
X115570000Y-88931635D01*
G37*
D11*
X117366051Y-85579949D03*
D10*
G36*
X121285000Y-81946635D02*
X119729365Y-80391000D01*
X121285000Y-78835365D01*
X122840635Y-80391000D01*
X121285000Y-81946635D01*
X121285000Y-81946635D01*
G37*
D11*
X123081051Y-78594949D03*
D10*
G36*
X128778000Y-77247635D02*
X127222365Y-75692000D01*
X128778000Y-74136365D01*
X130333635Y-75692000D01*
X128778000Y-77247635D01*
X128778000Y-77247635D01*
G37*
D11*
X130574051Y-73895949D03*
D21*
X140335000Y-91186000D03*
D11*
X140335000Y-93726000D03*
D21*
X110490000Y-106426000D03*
D11*
X110490000Y-103886000D03*
D21*
X148590000Y-83566000D03*
D11*
X146050000Y-83566000D03*
D21*
X162560000Y-89916000D03*
D11*
X160020000Y-89916000D03*
D21*
X119380000Y-96266000D03*
D11*
X121920000Y-96266000D03*
D10*
G36*
X126714365Y-112776000D02*
X128270000Y-111220365D01*
X129825635Y-112776000D01*
X128270000Y-114331635D01*
X126714365Y-112776000D01*
X126714365Y-112776000D01*
G37*
D11*
X130066051Y-114572051D03*
D22*
X152400000Y-121224000D03*
X152400000Y-123124000D03*
X150368000Y-126050000D03*
X150368000Y-127950000D03*
X149098000Y-121986000D03*
X149098000Y-123886000D03*
D10*
G36*
X152008300Y-119174381D02*
X153210381Y-117972300D01*
X153988198Y-118750117D01*
X152786117Y-119952198D01*
X152008300Y-119174381D01*
X152008300Y-119174381D01*
G37*
G36*
X153351802Y-120517883D02*
X154553883Y-119315802D01*
X155331700Y-120093619D01*
X154129619Y-121295700D01*
X153351802Y-120517883D01*
X153351802Y-120517883D01*
G37*
G36*
X137805700Y-112727619D02*
X136603619Y-113929700D01*
X135825802Y-113151883D01*
X137027883Y-111949802D01*
X137805700Y-112727619D01*
X137805700Y-112727619D01*
G37*
G36*
X136462198Y-111384117D02*
X135260117Y-112586198D01*
X134482300Y-111808381D01*
X135684381Y-110606300D01*
X136462198Y-111384117D01*
X136462198Y-111384117D01*
G37*
D22*
X146050000Y-124018000D03*
X146050000Y-125918000D03*
X142494000Y-123764000D03*
X142494000Y-125664000D03*
X147828000Y-127066000D03*
X147828000Y-128966000D03*
D23*
X163338000Y-129352000D03*
X163338000Y-131252000D03*
X165338000Y-130302000D03*
D10*
G36*
X158605787Y-134015238D02*
X157757259Y-133166710D01*
X158676497Y-132247472D01*
X159525025Y-133096000D01*
X158605787Y-134015238D01*
X158605787Y-134015238D01*
G37*
G36*
X159949290Y-135358741D02*
X159100762Y-134510213D01*
X160020000Y-133590975D01*
X160868528Y-134439503D01*
X159949290Y-135358741D01*
X159949290Y-135358741D01*
G37*
G36*
X160691752Y-133272776D02*
X159843224Y-132424248D01*
X160762462Y-131505010D01*
X161610990Y-132353538D01*
X160691752Y-133272776D01*
X160691752Y-133272776D01*
G37*
D23*
X152924000Y-132654000D03*
X152924000Y-134554000D03*
X154924000Y-133604000D03*
X159274000Y-120970000D03*
X159274000Y-122870000D03*
X161274000Y-121920000D03*
D24*
X138110000Y-130064000D03*
X136210000Y-130064000D03*
X137160000Y-132064000D03*
X150810000Y-135144000D03*
X148910000Y-135144000D03*
X149860000Y-137144000D03*
D22*
X148463000Y-107757000D03*
X148463000Y-105857000D03*
D10*
G36*
X148257381Y-111580200D02*
X147055300Y-110378119D01*
X147833117Y-109600302D01*
X149035198Y-110802383D01*
X148257381Y-111580200D01*
X148257381Y-111580200D01*
G37*
G36*
X149600883Y-110236698D02*
X148398802Y-109034617D01*
X149176619Y-108256800D01*
X150378700Y-109458881D01*
X149600883Y-110236698D01*
X149600883Y-110236698D01*
G37*
D22*
X151892000Y-109344500D03*
X151892000Y-107444500D03*
D10*
G36*
X135773700Y-113743619D02*
X134571619Y-114945700D01*
X133793802Y-114167883D01*
X134995883Y-112965802D01*
X135773700Y-113743619D01*
X135773700Y-113743619D01*
G37*
G36*
X134430198Y-112400117D02*
X133228117Y-113602198D01*
X132450300Y-112824381D01*
X133652381Y-111622300D01*
X134430198Y-112400117D01*
X134430198Y-112400117D01*
G37*
G36*
X126883700Y-111711619D02*
X125681619Y-112913700D01*
X124903802Y-112135883D01*
X126105883Y-110933802D01*
X126883700Y-111711619D01*
X126883700Y-111711619D01*
G37*
G36*
X125540198Y-110368117D02*
X124338117Y-111570198D01*
X123560300Y-110792381D01*
X124762381Y-109590300D01*
X125540198Y-110368117D01*
X125540198Y-110368117D01*
G37*
D25*
X128204000Y-116078000D03*
X126304000Y-116078000D03*
X133792000Y-117348000D03*
X131892000Y-117348000D03*
D22*
X133858000Y-118938000D03*
X133858000Y-120838000D03*
D23*
X147939000Y-97851000D03*
X147939000Y-95951000D03*
X145939000Y-96901000D03*
X151431500Y-98994000D03*
X151431500Y-97094000D03*
X149431500Y-98044000D03*
X155940000Y-101978500D03*
X155940000Y-100078500D03*
X153940000Y-101028500D03*
X130032000Y-102296000D03*
X130032000Y-100396000D03*
X128032000Y-101346000D03*
D10*
G36*
X126612462Y-108396786D02*
X126153242Y-109505441D01*
X124952198Y-109007952D01*
X125411418Y-107899297D01*
X126612462Y-108396786D01*
X126612462Y-108396786D01*
G37*
G36*
X127339561Y-106641415D02*
X126880341Y-107750070D01*
X125679297Y-107252581D01*
X126138517Y-106143926D01*
X127339561Y-106641415D01*
X127339561Y-106641415D01*
G37*
G36*
X125128252Y-106753734D02*
X124669032Y-107862389D01*
X123467988Y-107364900D01*
X123927208Y-106256245D01*
X125128252Y-106753734D01*
X125128252Y-106753734D01*
G37*
G36*
X120032213Y-110586762D02*
X120880741Y-111435290D01*
X119961503Y-112354528D01*
X119112975Y-111506000D01*
X120032213Y-110586762D01*
X120032213Y-110586762D01*
G37*
G36*
X118688710Y-109243259D02*
X119537238Y-110091787D01*
X118618000Y-111011025D01*
X117769472Y-110162497D01*
X118688710Y-109243259D01*
X118688710Y-109243259D01*
G37*
G36*
X117946248Y-111329224D02*
X118794776Y-112177752D01*
X117875538Y-113096990D01*
X117027010Y-112248462D01*
X117946248Y-111329224D01*
X117946248Y-111329224D01*
G37*
D23*
X127238000Y-122870000D03*
X127238000Y-120970000D03*
X125238000Y-121920000D03*
X133874000Y-122240000D03*
X133874000Y-124140000D03*
X135874000Y-123190000D03*
D10*
G36*
X138488280Y-112212512D02*
X137215488Y-110939720D01*
X137922594Y-110232614D01*
X139195386Y-111505406D01*
X138488280Y-112212512D01*
X138488280Y-112212512D01*
G37*
G36*
X139206701Y-111494091D02*
X137933909Y-110221299D01*
X138641015Y-109514193D01*
X139913807Y-110786985D01*
X139206701Y-111494091D01*
X139206701Y-111494091D01*
G37*
G36*
X139925121Y-110775671D02*
X138652329Y-109502879D01*
X139359435Y-108795773D01*
X140632227Y-110068565D01*
X139925121Y-110775671D01*
X139925121Y-110775671D01*
G37*
D26*
X143002000Y-130754000D03*
X143002000Y-133914000D03*
D27*
X152717500Y-116840000D03*
D28*
X152717500Y-114808000D03*
X152717500Y-112776000D03*
D10*
G36*
X140264681Y-122996402D02*
X138744402Y-124516681D01*
X137400899Y-123173178D01*
X138921178Y-121652899D01*
X140264681Y-122996402D01*
X140264681Y-122996402D01*
G37*
D29*
X137219172Y-121824726D02*
X137572726Y-121471172D01*
X135782331Y-120387885D02*
X136135885Y-120034331D01*
D22*
X135382000Y-127188000D03*
X135382000Y-125288000D03*
D30*
X147320000Y-138684000D03*
X136906000Y-106426000D03*
X142494000Y-128524000D03*
X123698000Y-97790000D03*
M02*
